<?xml version="1.0" encoding="UTF-8" standalone="no"?><!DOCTYPE svg PUBLIC "-//W3C//DTD SVG 1.1//EN" "http://www.w3.org/Graphics/SVG/1.1/DTD/svg11.dtd"><!-- Generated by graphviz version 2.40.1 (20161225.0304)
 --><!-- Title: G Pages: 1 --><svg xmlns="http://www.w3.org/2000/svg" xmlns:xlink="http://www.w3.org/1999/xlink" width="372pt" height="570pt" viewBox="0.00 0.00 372.00 570.40">
<g id="graph0" class="graph" transform="scale(1 1) rotate(0) translate(4 566.4)">
<title>G</title>
<polygon fill="#ffffff" stroke="transparent" points="-4,4 -4,-566.4 368,-566.4 368,4 -4,4"/>
<g id="clust1" class="cluster">
<title>cluster_0</title>
<polygon fill="#c0c0c0" stroke="#c0c0c0" points="158,-220.8 158,-518.4 356,-518.4 356,-220.8 158,-220.8"/>
<text text-anchor="middle" x="257" y="-501.8" font-family="Times,serif" font-size="14.00" fill="#000000">process video</text>
</g>
<g id="clust2" class="cluster">
<title>cluster_1</title>
<polygon fill="#ffe4c4" stroke="#ffe4c4" points="8,-148.8 8,-297.6 150,-297.6 150,-148.8 8,-148.8"/>
<text text-anchor="middle" x="79" y="-281" font-family="Times,serif" font-size="14.00" fill="#000000">analyze_swing</text>
</g>
<g id="clust3" class="cluster">
<title>cluster_2</title>
<polygon fill="#ff7f50" stroke="#ff7f50" points="117,-64 117,-140.8 319,-140.8 319,-64 117,-64"/>
<text text-anchor="middle" x="218" y="-124.2" font-family="Times,serif" font-size="14.00" fill="#000000">output_video</text>
</g>
<!-- run_media_pipe -->
<g id="node1" class="node">
<title>run_media_pipe</title>
<ellipse fill="none" stroke="#000000" cx="257" cy="-467.6" rx="73.5811" ry="18"/>
<text text-anchor="middle" x="257" y="-463.4" font-family="Times,serif" font-size="14.00" fill="#000000">run_media_pipe</text>
</g>
<!-- run_ml_pose_model -->
<g id="node2" class="node">
<title>run_ml_pose_model</title>
<ellipse fill="none" stroke="#000000" cx="257" cy="-395.6" rx="90.3564" ry="18"/>
<text text-anchor="middle" x="257" y="-391.4" font-family="Times,serif" font-size="14.00" fill="#000000">run_ml_pose_model</text>
</g>
<!-- run_media_pipe&#45;&gt;run_ml_pose_model -->
<g id="edge1" class="edge">
<title>run_media_pipe-&gt;run_ml_pose_model</title>
<path fill="none" stroke="#000000" d="M257,-449.4314C257,-441.731 257,-432.5743 257,-424.0166"/>
<polygon fill="#000000" stroke="#000000" points="260.5001,-424.0132 257,-414.0133 253.5001,-424.0133 260.5001,-424.0132"/>
</g>
<!-- crop_start_end_pose -->
<g id="node3" class="node">
<title>crop_start_end_pose</title>
<ellipse fill="none" stroke="#000000" cx="257" cy="-323.6" rx="90.8955" ry="18"/>
<text text-anchor="middle" x="257" y="-319.4" font-family="Times,serif" font-size="14.00" fill="#000000">crop_start_end_pose</text>
</g>
<!-- run_ml_pose_model&#45;&gt;crop_start_end_pose -->
<g id="edge2" class="edge">
<title>run_ml_pose_model-&gt;crop_start_end_pose</title>
<path fill="none" stroke="#000000" d="M257,-377.4314C257,-369.731 257,-360.5743 257,-352.0166"/>
<polygon fill="#000000" stroke="#000000" points="260.5001,-352.0132 257,-342.0133 253.5001,-352.0133 260.5001,-352.0132"/>
</g>
<!-- detect_golf_club -->
<g id="node4" class="node">
<title>detect_golf_club</title>
<ellipse fill="none" stroke="#000000" cx="249" cy="-246.8" rx="75.8643" ry="18"/>
<text text-anchor="middle" x="249" y="-242.6" font-family="Times,serif" font-size="14.00" fill="#000000">detect_golf_club</text>
</g>
<!-- crop_start_end_pose&#45;&gt;detect_golf_club -->
<g id="edge3" class="edge">
<title>crop_start_end_pose-&gt;detect_golf_club</title>
<path fill="none" stroke="#000000" d="M255.1041,-305.3995C254.1576,-296.3132 252.9914,-285.1176 251.9328,-274.9549"/>
<polygon fill="#000000" stroke="#000000" points="255.3996,-274.4534 250.8823,-264.8699 248.4373,-275.1787 255.3996,-274.4534"/>
</g>
<!-- pickle_db -->
<g id="node6" class="node">
<title>pickle_db</title>
<polygon fill="none" stroke="#000000" points="253.7107,-192.8 186.2893,-192.8 182.2893,-188.8 182.2893,-156.8 249.7107,-156.8 253.7107,-160.8 253.7107,-192.8"/>
<polyline fill="none" stroke="#000000" points="249.7107,-188.8 182.2893,-188.8 "/>
<polyline fill="none" stroke="#000000" points="249.7107,-188.8 249.7107,-156.8 "/>
<polyline fill="none" stroke="#000000" points="249.7107,-188.8 253.7107,-192.8 "/>
<text text-anchor="middle" x="218" y="-170.6" font-family="Times,serif" font-size="14.00" fill="#000000">pickle_db</text>
</g>
<!-- detect_golf_club&#45;&gt;pickle_db -->
<g id="edge5" class="edge">
<title>detect_golf_club-&gt;pickle_db</title>
<path fill="none" stroke="#000000" d="M241.1774,-228.6314C237.7891,-220.7617 233.7459,-211.3712 229.9924,-202.6533"/>
<polygon fill="#000000" stroke="#000000" points="233.0973,-201.014 225.9279,-193.2133 226.6679,-203.7822 233.0973,-201.014"/>
</g>
<!-- video_file -->
<g id="node5" class="node">
<title>video_file</title>
<polygon fill="none" stroke="#000000" points="293.262,-562.4 290.262,-566.4 269.262,-566.4 266.262,-562.4 220.738,-562.4 220.738,-526.4 293.262,-526.4 293.262,-562.4"/>
<text text-anchor="middle" x="257" y="-540.2" font-family="Times,serif" font-size="14.00" fill="#000000">video_file</text>
</g>
<!-- video_file&#45;&gt;run_media_pipe -->
<g id="edge4" class="edge">
<title>video_file-&gt;run_media_pipe</title>
<path fill="none" stroke="#000000" d="M257,-526.1995C257,-517.1132 257,-505.9176 257,-495.7549"/>
<polygon fill="#000000" stroke="#000000" points="260.5001,-495.6698 257,-485.6699 253.5001,-495.6699 260.5001,-495.6698"/>
</g>
<!-- golf_analysis -->
<g id="node7" class="node">
<title>golf_analysis</title>
<ellipse fill="none" stroke="#000000" cx="79" cy="-246.8" rx="62.5585" ry="18"/>
<text text-anchor="middle" x="79" y="-242.6" font-family="Times,serif" font-size="14.00" fill="#000000">golf_analysis</text>
</g>
<!-- pickle_db&#45;&gt;golf_analysis -->
<g id="edge6" class="edge">
<title>pickle_db-&gt;golf_analysis</title>
<path fill="none" stroke="#000000" d="M188.9421,-192.933C169.7428,-203.4083 144.3426,-216.5872 122.7467,-227.2875"/>
<polygon fill="#000000" stroke="#000000" points="121.185,-224.1551 113.7534,-231.7064 124.272,-230.4377 121.185,-224.1551"/>
</g>
<!-- display_swing_video -->
<g id="node8" class="node">
<title>display_swing_video</title>
<ellipse fill="none" stroke="#000000" cx="218" cy="-90" rx="93.2238" ry="18"/>
<text text-anchor="middle" x="218" y="-85.8" font-family="Times,serif" font-size="14.00" fill="#000000">display_swing_video</text>
</g>
<!-- pickle_db&#45;&gt;display_swing_video -->
<g id="edge8" class="edge">
<title>pickle_db-&gt;display_swing_video</title>
<path fill="none" stroke="#000000" d="M218,-156.3997C218,-145.2112 218,-130.6983 218,-118.0954"/>
<polygon fill="#000000" stroke="#000000" points="221.5001,-118.0731 218,-108.0731 214.5001,-118.0731 221.5001,-118.0731"/>
</g>
<!-- golf_analysis&#45;&gt;pickle_db -->
<g id="edge7" class="edge">
<title>golf_analysis-&gt;pickle_db</title>
<path fill="none" stroke="#000000" d="M105.1085,-230.2817C124.2345,-219.7727 150.5252,-206.094 172.9714,-194.9483"/>
<polygon fill="#000000" stroke="#000000" points="174.5771,-198.059 182.0015,-190.5006 171.4841,-191.7794 174.5771,-198.059"/>
</g>
<!-- swing_result -->
<g id="node10" class="node">
<title>swing_result</title>
<polygon fill="#ffffff" stroke="#ffffff" points="116.544,-192.8 35.456,-192.8 35.456,-156.8 122.544,-156.8 122.544,-186.8 116.544,-192.8"/>
<polyline fill="none" stroke="#ffffff" points="116.544,-192.8 116.544,-186.8 "/>
<polyline fill="none" stroke="#ffffff" points="122.544,-186.8 116.544,-186.8 "/>
<text text-anchor="middle" x="79" y="-170.6" font-family="Times,serif" font-size="14.00" fill="#000000">swing_result</text>
</g>
<!-- golf_analysis&#45;&gt;swing_result -->
<g id="edge10" class="edge">
<title>golf_analysis-&gt;swing_result</title>
<path fill="none" stroke="#000000" d="M79,-228.6314C79,-220.931 79,-211.7743 79,-203.2166"/>
<polygon fill="#000000" stroke="#000000" points="82.5001,-203.2132 79,-193.2133 75.5001,-203.2133 82.5001,-203.2132"/>
</g>
<!-- swing_video -->
<g id="node9" class="node">
<title>swing_video</title>
<polygon fill="none" stroke="#000000" points="261.5482,-36 258.5482,-40 237.5482,-40 234.5482,-36 174.4518,-36 174.4518,0 261.5482,0 261.5482,-36"/>
<text text-anchor="middle" x="218" y="-13.8" font-family="Times,serif" font-size="14.00" fill="#000000">swing_video</text>
</g>
<!-- display_swing_video&#45;&gt;swing_video -->
<g id="edge9" class="edge">
<title>display_swing_video-&gt;swing_video</title>
<path fill="none" stroke="#000000" d="M218,-71.8314C218,-64.131 218,-54.9743 218,-46.4166"/>
<polygon fill="#000000" stroke="#000000" points="221.5001,-46.4132 218,-36.4133 214.5001,-46.4133 221.5001,-46.4132"/>
</g>
</g>
</svg>