<?xml version="1.0" encoding="UTF-8" standalone="no"?><svg xmlns="http://www.w3.org/2000/svg" xmlns:xlink="http://www.w3.org/1999/xlink" contentScriptType="application/ecmascript" contentStyleType="text/css" height="764px" preserveAspectRatio="none" style="width:517px;height:764px;" version="1.1" viewBox="0 0 517 764" width="517px" zoomAndPan="magnify"><defs><filter height="300%" id="fxq6nhakusn8t" width="300%" x="-1" y="-1"><feGaussianBlur result="blurOut" stdDeviation="2.0"/><feColorMatrix in="blurOut" result="blurOut2" type="matrix" values="0 0 0 0 0 0 0 0 0 0 0 0 0 0 0 0 0 0 .4 0"/><feOffset dx="4.0" dy="4.0" in="blurOut2" result="blurOut3"/><feBlend in="SourceGraphic" in2="blurOut3" mode="normal"/></filter></defs><g><ellipse cx="145" cy="20" fill="#000000" filter="url(#fxq6nhakusn8t)" rx="10" ry="10" style="stroke: none; stroke-width: 1.0;"/><rect fill="#FEFECE" filter="url(#fxq6nhakusn8t)" height="35.0938" rx="12.5" ry="12.5" style="stroke: #A80036; stroke-width: 1.5;" width="270" x="10" y="50"/><text fill="#000000" font-family="sans-serif" font-size="12" lengthAdjust="spacingAndGlyphs" textLength="250" x="20" y="72.457">Run script "create_swing_db &lt;video_fname&gt;"</text><rect fill="#FFFFFF" filter="url(#fxq6nhakusn8t)" height="275.7617" style="stroke: #000000; stroke-width: 2.0;" width="199" x="51.5" y="95.6699"/><path d="M208.5,96.6699 L208.5,106.2793 L198.5,116.2793 L51.5,116.2793 " fill="none" style="stroke: #000000; stroke-width: 2.0;"/><text fill="#000000" font-family="sans-serif" font-size="14" lengthAdjust="spacingAndGlyphs" textLength="147" x="54.5" y="111.2031">create_swing_db Script</text><rect fill="#FEFECE" filter="url(#fxq6nhakusn8t)" height="50.1875" rx="12.5" ry="12.5" style="stroke: #A80036; stroke-width: 1.5;" width="152" x="69" y="133.2793"/><text fill="#000000" font-family="sans-serif" font-size="12" lengthAdjust="spacingAndGlyphs" textLength="132" x="79" y="155.7363">Use default pose model</text><text fill="#000000" font-family="sans-serif" font-size="12" lengthAdjust="spacingAndGlyphs" textLength="120" x="79" y="170.8301">to detect swing poses</text><rect fill="#FEFECE" filter="url(#fxq6nhakusn8t)" height="35.0938" rx="12.5" ry="12.5" style="stroke: #A80036; stroke-width: 1.5;" width="147" x="71.5" y="252.3848"/><text fill="#000000" font-family="sans-serif" font-size="12" lengthAdjust="spacingAndGlyphs" textLength="127" x="81.5" y="274.8418">Create pickle database</text><ellipse cx="145" cy="326.4316" fill="#FFFFFF" filter="url(#fxq6nhakusn8t)" rx="11" ry="11" style="stroke: #000000; stroke-width: 1.0;"/><ellipse cx="145" cy="326.4316" fill="#000000" rx="6" ry="6" style="stroke: #7F7F7F; stroke-width: 1.0;"/><polygon fill="#FEFECE" filter="url(#fxq6nhakusn8t)" points="107,203.4668,183,203.4668,195,215.4668,183,227.4668,107,227.4668,95,215.4668,107,203.4668" style="stroke: #A80036; stroke-width: 1.5;"/><text fill="#000000" font-family="sans-serif" font-size="11" lengthAdjust="spacingAndGlyphs" textLength="18" x="149" y="238.8857">yes</text><text fill="#000000" font-family="sans-serif" font-size="11" lengthAdjust="spacingAndGlyphs" textLength="76" x="107" y="219.9678">Pose Detected?</text><text fill="#000000" font-family="sans-serif" font-size="11" lengthAdjust="spacingAndGlyphs" textLength="12" x="195" y="213.0498">no</text><rect fill="#FEFECE" filter="url(#fxq6nhakusn8t)" height="50.1875" rx="12.5" ry="12.5" style="stroke: #A80036; stroke-width: 1.5;" width="246" x="22" y="391.4316"/><text fill="#000000" font-family="sans-serif" font-size="12" lengthAdjust="spacingAndGlyphs" textLength="139" x="32" y="413.8887">Manually label golf poses</text><text fill="#000000" font-family="sans-serif" font-size="12" lengthAdjust="spacingAndGlyphs" textLength="226" x="32" y="428.9824">using "label_golf_poses &lt;video_fname&gt;"</text><rect fill="#FEFECE" filter="url(#fxq6nhakusn8t)" height="50.1875" rx="12.5" ry="12.5" style="stroke: #A80036; stroke-width: 1.5;" width="163" x="63.5" y="461.6191"/><text fill="#000000" font-family="sans-serif" font-size="12" lengthAdjust="spacingAndGlyphs" textLength="143" x="73.5" y="484.0762">Select starting and ending</text><text fill="#000000" font-family="sans-serif" font-size="12" lengthAdjust="spacingAndGlyphs" textLength="112" x="73.5" y="499.1699">pose frames via GUI</text><rect fill="#FEFECE" filter="url(#fxq6nhakusn8t)" height="35.0938" rx="12.5" ry="12.5" style="stroke: #A80036; stroke-width: 1.5;" width="186" x="52" y="531.8066"/><text fill="#000000" font-family="sans-serif" font-size="12" lengthAdjust="spacingAndGlyphs" textLength="166" x="62" y="554.2637">Create CSV file with pose data</text><path d="M255,582.4668 L255,607.9941 L235,611.9941 L255,615.9941 L255,641.5215 A0,0 0 0 0 255,641.5215 L505,641.5215 A0,0 0 0 0 505,641.5215 L505,592.4668 L495,582.4668 L255,582.4668 A0,0 0 0 0 255,582.4668 " fill="#FBFB77" filter="url(#fxq6nhakusn8t)" style="stroke: #A80036; stroke-width: 1.0;"/><path d="M495,582.4668 L495,592.4668 L505,592.4668 L495,582.4668 " fill="#FBFB77" style="stroke: #A80036; stroke-width: 1.0;"/><text fill="#000000" font-family="sans-serif" font-size="13" lengthAdjust="spacingAndGlyphs" textLength="229" x="261" y="600.9619">At this point, the system has learned to</text><text fill="#000000" font-family="sans-serif" font-size="13" lengthAdjust="spacingAndGlyphs" textLength="207" x="261" y="617.3135">recognize the poses and is ready to</text><text fill="#000000" font-family="sans-serif" font-size="13" lengthAdjust="spacingAndGlyphs" textLength="128" x="261" y="633.665">be re-run on the video.</text><rect fill="#FEFECE" filter="url(#fxq6nhakusn8t)" height="50.1875" rx="12.5" ry="12.5" style="stroke: #A80036; stroke-width: 1.5;" width="180" x="55" y="586.9004"/><text fill="#000000" font-family="sans-serif" font-size="12" lengthAdjust="spacingAndGlyphs" textLength="100" x="65" y="609.3574">Train model using</text><text fill="#000000" font-family="sans-serif" font-size="12" lengthAdjust="spacingAndGlyphs" textLength="160" x="65" y="624.4512">"train_posemodel &lt;csv_file&gt;"</text><rect fill="#FEFECE" filter="url(#fxq6nhakusn8t)" height="50.1875" rx="12.5" ry="12.5" style="stroke: #A80036; stroke-width: 1.5;" width="252" x="19" y="661.5215"/><text fill="#000000" font-family="sans-serif" font-size="12" lengthAdjust="spacingAndGlyphs" textLength="232" x="29" y="683.9785">Re-run "create_swing_db &lt;video_fname&gt;"</text><text fill="#000000" font-family="sans-serif" font-size="12" lengthAdjust="spacingAndGlyphs" textLength="137" x="29" y="699.0723">to create pickle database</text><ellipse cx="145" cy="742.709" fill="#FFFFFF" filter="url(#fxq6nhakusn8t)" rx="11" ry="11" style="stroke: #000000; stroke-width: 1.0;"/><ellipse cx="145" cy="742.709" fill="#000000" rx="6" ry="6" style="stroke: #7F7F7F; stroke-width: 1.0;"/><line style="stroke: #A80036; stroke-width: 1.5;" x1="145" x2="145" y1="30" y2="50"/><polygon fill="#A80036" points="141,40,145,50,149,40,145,44" style="stroke: #A80036; stroke-width: 1.0;"/><line style="stroke: #A80036; stroke-width: 1.5;" x1="145" x2="145" y1="287.4785" y2="315.4316"/><polygon fill="#A80036" points="141,305.4316,145,315.4316,149,305.4316,145,309.4316" style="stroke: #A80036; stroke-width: 1.0;"/><line style="stroke: #A80036; stroke-width: 1.5;" x1="145" x2="145" y1="227.4668" y2="252.3848"/><polygon fill="#A80036" points="141,242.3848,145,252.3848,149,242.3848,145,246.3848" style="stroke: #A80036; stroke-width: 1.0;"/><line style="stroke: #A80036; stroke-width: 1.5;" x1="195" x2="228.5" y1="215.4668" y2="215.4668"/><polygon fill="#A80036" points="224.5,285.4316,228.5,295.4316,232.5,285.4316,228.5,289.4316" style="stroke: #A80036; stroke-width: 1.5;"/><line style="stroke: #A80036; stroke-width: 1.5;" x1="228.5" x2="228.5" y1="215.4668" y2="359.4316"/><line style="stroke: #A80036; stroke-width: 1.5;" x1="228.5" x2="145" y1="359.4316" y2="359.4316"/><line style="stroke: #A80036; stroke-width: 1.5;" x1="145" x2="145" y1="359.4316" y2="391.4316"/><polygon fill="#A80036" points="141,381.4316,145,391.4316,149,381.4316,145,385.4316" style="stroke: #A80036; stroke-width: 1.0;"/><line style="stroke: #A80036; stroke-width: 1.5;" x1="145" x2="145" y1="183.4668" y2="203.4668"/><polygon fill="#A80036" points="141,193.4668,145,203.4668,149,193.4668,145,197.4668" style="stroke: #A80036; stroke-width: 1.0;"/><line style="stroke: #A80036; stroke-width: 1.5;" x1="145" x2="145" y1="85.0938" y2="133.2793"/><polygon fill="#A80036" points="141,123.2793,145,133.2793,149,123.2793,145,127.2793" style="stroke: #A80036; stroke-width: 1.0;"/><line style="stroke: #A80036; stroke-width: 1.5;" x1="145" x2="145" y1="441.6191" y2="461.6191"/><polygon fill="#A80036" points="141,451.6191,145,461.6191,149,451.6191,145,455.6191" style="stroke: #A80036; stroke-width: 1.0;"/><line style="stroke: #A80036; stroke-width: 1.5;" x1="145" x2="145" y1="511.8066" y2="531.8066"/><polygon fill="#A80036" points="141,521.8066,145,531.8066,149,521.8066,145,525.8066" style="stroke: #A80036; stroke-width: 1.0;"/><line style="stroke: #A80036; stroke-width: 1.5;" x1="145" x2="145" y1="566.9004" y2="586.9004"/><polygon fill="#A80036" points="141,576.9004,145,586.9004,149,576.9004,145,580.9004" style="stroke: #A80036; stroke-width: 1.0;"/><line style="stroke: #A80036; stroke-width: 1.5;" x1="145" x2="145" y1="637.0879" y2="661.5215"/><polygon fill="#A80036" points="141,651.5215,145,661.5215,149,651.5215,145,655.5215" style="stroke: #A80036; stroke-width: 1.0;"/><line style="stroke: #A80036; stroke-width: 1.5;" x1="145" x2="145" y1="711.709" y2="731.709"/><polygon fill="#A80036" points="141,721.709,145,731.709,149,721.709,145,725.709" style="stroke: #A80036; stroke-width: 1.0;"/><!--MD5=[301c293614c8ab8b451853097b37f11b]
@startuml
start
:Run script "create_swing_db <video_fname>";

partition "create_swing_db Script" {
  :Use default pose model\nto detect swing poses;
  if (Pose Detected?) then (yes)
    :Create pickle database;
    stop
  else (no)
  endif
}

:Manually label golf poses\nusing "label_golf_poses <video_fname>";
:Select starting and ending\npose frames via GUI;
:Create CSV file with pose data;

:Train model using\n"train_posemodel <csv_file>";
note right
  At this point, the system has learned to
  recognize the poses and is ready to
  be re-run on the video.
end note

:Re-run "create_swing_db <video_fname>"\nto create pickle database;
stop
@enduml

PlantUML version 1.2020.02(Sun Mar 01 05:22:07 EST 2020)
(GPL source distribution)
Java Runtime: Java(TM) SE Runtime Environment
JVM: Java HotSpot(TM) 64-Bit Server VM
Java Version: 17.0.8+9-LTS-211
Operating System: Windows 10
Default Encoding: Cp1252
Language: en
Country: US
--></g></svg>