<?xml version="1.0" encoding="UTF-8" standalone="no"?><svg xmlns="http://www.w3.org/2000/svg" xmlns:xlink="http://www.w3.org/1999/xlink" contentScriptType="application/ecmascript" contentStyleType="text/css" height="952px" preserveAspectRatio="none" style="width:3490px;height:952px;" version="1.1" viewBox="0 0 3490 952" width="3490px" zoomAndPan="magnify"><defs><filter height="300%" id="fsvszfnovimdv" width="300%" x="-1" y="-1"><feGaussianBlur result="blurOut" stdDeviation="4.0"/><feColorMatrix in="blurOut" result="blurOut2" type="matrix" values="0 0 0 0 0 0 0 0 0 0 0 0 0 0 0 0 0 0 .4 0"/><feOffset dx="8.0" dy="8.0" in="blurOut2" result="blurOut3"/><feBlend in="SourceGraphic" in2="blurOut3" mode="normal"/></filter></defs><g><!--MD5=[2fc911db6b22b0fb01c8870726a700de]
cluster GolfSwing Aggregate--><polygon fill="#FFFFFF" filter="url(#fsvszfnovimdv)" points="638,268,946,268,960,315.2188,2018,315.2188,2018,928,638,928,638,268" style="stroke: #000000; stroke-width: 3.0;"/><line style="stroke: #000000; stroke-width: 3.0;" x1="638" x2="960" y1="315.2188" y2="315.2188"/><text fill="#000000" font-family="sans-serif" font-size="28" font-weight="bold" lengthAdjust="spacingAndGlyphs" textLength="296" x="646" y="301.0664">GolfSwing Aggregate</text><!--MD5=[b35a7296e234cf3b3602d402d9fdf52b]
class GolfSwing--><rect fill="#FEFECE" filter="url(#fsvszfnovimdv)" height="179.0156" id="GolfSwing" style="stroke: #A80036; stroke-width: 3.0;" width="388" x="1222" y="380"/><ellipse cx="1351.5" cy="412" fill="#ADD1B2" rx="22" ry="22" style="stroke: #A80036; stroke-width: 2.0;"/><path d="M1357.0313,403.75 Q1357.3438,403.3125 1357.7188,403.0938 Q1358.0938,402.875 1358.5313,402.875 Q1359.2813,402.875 1359.75,403.4063 Q1360.2188,403.9063 1360.2188,405.125 L1360.2188,408.0313 Q1360.2188,409.25 1359.75,409.7813 Q1359.2813,410.3125 1358.5313,410.3125 Q1357.8438,410.3125 1357.4375,409.9063 Q1357.0313,409.5313 1356.8125,408.5 Q1356.7188,407.7813 1356.3438,407.4063 Q1355.6875,406.6563 1354.4688,406.2188 Q1353.25,405.7813 1352,405.7813 Q1350.4688,405.7813 1349.1875,406.4375 Q1347.9375,407.0938 1346.9375,408.5938 Q1345.9688,410.0938 1345.9688,412.1563 L1345.9688,414.3438 Q1345.9688,416.8125 1347.75,418.4688 Q1349.5313,420.0938 1352.7188,420.0938 Q1354.5938,420.0938 1355.9063,419.5938 Q1356.6875,419.2813 1357.5313,418.4063 Q1358.0625,417.875 1358.3438,417.7188 Q1358.6563,417.5625 1359.0625,417.5625 Q1359.7188,417.5625 1360.2188,418.0938 Q1360.75,418.5938 1360.75,419.2813 Q1360.75,419.9688 1360.0625,420.7813 Q1359.0625,421.9375 1357.4688,422.5938 Q1355.3125,423.5 1352.7188,423.5 Q1349.6875,423.5 1347.2813,422.25 Q1345.3125,421.25 1343.9375,419.125 Q1342.5625,416.9688 1342.5625,414.4063 L1342.5625,412.0938 Q1342.5625,409.4375 1343.7813,407.1563 Q1345.0313,404.8438 1347.2188,403.625 Q1349.4063,402.375 1351.875,402.375 Q1353.3438,402.375 1354.625,402.7188 Q1355.9375,403.0313 1357.0313,403.75 Z "/><text fill="#000000" font-family="sans-serif" font-size="24" lengthAdjust="spacingAndGlyphs" textLength="112" x="1392.5" y="421.8203">GolfSwing</text><line style="stroke: #A80036; stroke-width: 3.0;" x1="1224" x2="1608" y1="444" y2="444"/><rect fill="none" height="12" style="stroke: #C82930; stroke-width: 2.0;" width="12" x="1238" y="460"/><text fill="#000000" font-family="sans-serif" font-size="22" lengthAdjust="spacingAndGlyphs" textLength="314" x="1262" y="474.8379">MediaPipeLandmarks mp_results</text><rect fill="none" height="12" style="stroke: #C82930; stroke-width: 2.0;" width="12" x="1238" y="487.6719"/><text fill="#000000" font-family="sans-serif" font-size="22" lengthAdjust="spacingAndGlyphs" textLength="252" x="1262" y="502.5098">PoseResults pose_results</text><rect fill="none" height="12" style="stroke: #C82930; stroke-width: 2.0;" width="12" x="1238" y="515.3438"/><text fill="#000000" font-family="sans-serif" font-size="22" lengthAdjust="spacingAndGlyphs" textLength="336" x="1262" y="530.1816">ClubHeadResult club_head_results</text><line style="stroke: #A80036; stroke-width: 3.0;" x1="1224" x2="1608" y1="543.0156" y2="543.0156"/><!--MD5=[a7c684dea60b25acca193302eecbd3fa]
class MediaPipeLandmarks--><rect fill="#FEFECE" filter="url(#fsvszfnovimdv)" height="151.3438" id="MediaPipeLandmarks" style="stroke: #A80036; stroke-width: 3.0;" width="492" x="1494" y="730"/><ellipse cx="1610.5" cy="762" fill="#ADD1B2" rx="22" ry="22" style="stroke: #A80036; stroke-width: 2.0;"/><path d="M1616.0313,753.75 Q1616.3438,753.3125 1616.7188,753.0938 Q1617.0938,752.875 1617.5313,752.875 Q1618.2813,752.875 1618.75,753.4063 Q1619.2188,753.9063 1619.2188,755.125 L1619.2188,758.0313 Q1619.2188,759.25 1618.75,759.7813 Q1618.2813,760.3125 1617.5313,760.3125 Q1616.8438,760.3125 1616.4375,759.9063 Q1616.0313,759.5313 1615.8125,758.5 Q1615.7188,757.7813 1615.3438,757.4063 Q1614.6875,756.6563 1613.4688,756.2188 Q1612.25,755.7813 1611,755.7813 Q1609.4688,755.7813 1608.1875,756.4375 Q1606.9375,757.0938 1605.9375,758.5938 Q1604.9688,760.0938 1604.9688,762.1563 L1604.9688,764.3438 Q1604.9688,766.8125 1606.75,768.4688 Q1608.5313,770.0938 1611.7188,770.0938 Q1613.5938,770.0938 1614.9063,769.5938 Q1615.6875,769.2813 1616.5313,768.4063 Q1617.0625,767.875 1617.3438,767.7188 Q1617.6563,767.5625 1618.0625,767.5625 Q1618.7188,767.5625 1619.2188,768.0938 Q1619.75,768.5938 1619.75,769.2813 Q1619.75,769.9688 1619.0625,770.7813 Q1618.0625,771.9375 1616.4688,772.5938 Q1614.3125,773.5 1611.7188,773.5 Q1608.6875,773.5 1606.2813,772.25 Q1604.3125,771.25 1602.9375,769.125 Q1601.5625,766.9688 1601.5625,764.4063 L1601.5625,762.0938 Q1601.5625,759.4375 1602.7813,757.1563 Q1604.0313,754.8438 1606.2188,753.625 Q1608.4063,752.375 1610.875,752.375 Q1612.3438,752.375 1613.625,752.7188 Q1614.9375,753.0313 1616.0313,753.75 Z "/><text fill="#000000" font-family="sans-serif" font-size="24" lengthAdjust="spacingAndGlyphs" textLength="242" x="1651.5" y="771.8203">MediaPipeLandmarks</text><line style="stroke: #A80036; stroke-width: 3.0;" x1="1496" x2="1984" y1="794" y2="794"/><rect fill="none" height="12" style="stroke: #C82930; stroke-width: 2.0;" width="12" x="1510" y="810"/><text fill="#000000" font-family="sans-serif" font-size="22" lengthAdjust="spacingAndGlyphs" textLength="202" x="1534" y="824.8379">List video_landmarks</text><line style="stroke: #A80036; stroke-width: 3.0;" x1="1496" x2="1984" y1="837.6719" y2="837.6719"/><ellipse cx="1516" cy="859.6719" fill="#84BE84" rx="6" ry="6" style="stroke: #038048; stroke-width: 2.0;"/><text fill="#000000" font-family="sans-serif" font-size="22" lengthAdjust="spacingAndGlyphs" textLength="440" x="1534" y="868.5098">(x, y) get_norm_point(frame_idx, point_name)</text><!--MD5=[089efc1baf2c0246d4a1a3318d344ee3]
class PoseResults--><rect fill="#FEFECE" filter="url(#fsvszfnovimdv)" height="179.0156" id="PoseResults" style="stroke: #A80036; stroke-width: 3.0;" width="312" x="1112" y="716"/><ellipse cx="1188.8" cy="748" fill="#ADD1B2" rx="22" ry="22" style="stroke: #A80036; stroke-width: 2.0;"/><path d="M1194.3313,739.75 Q1194.6438,739.3125 1195.0188,739.0938 Q1195.3938,738.875 1195.8313,738.875 Q1196.5813,738.875 1197.05,739.4063 Q1197.5188,739.9063 1197.5188,741.125 L1197.5188,744.0313 Q1197.5188,745.25 1197.05,745.7813 Q1196.5813,746.3125 1195.8313,746.3125 Q1195.1438,746.3125 1194.7375,745.9063 Q1194.3313,745.5313 1194.1125,744.5 Q1194.0188,743.7813 1193.6438,743.4063 Q1192.9875,742.6563 1191.7688,742.2188 Q1190.55,741.7813 1189.3,741.7813 Q1187.7688,741.7813 1186.4875,742.4375 Q1185.2375,743.0938 1184.2375,744.5938 Q1183.2688,746.0938 1183.2688,748.1563 L1183.2688,750.3438 Q1183.2688,752.8125 1185.05,754.4688 Q1186.8313,756.0938 1190.0188,756.0938 Q1191.8938,756.0938 1193.2063,755.5938 Q1193.9875,755.2813 1194.8313,754.4063 Q1195.3625,753.875 1195.6438,753.7188 Q1195.9563,753.5625 1196.3625,753.5625 Q1197.0188,753.5625 1197.5188,754.0938 Q1198.05,754.5938 1198.05,755.2813 Q1198.05,755.9688 1197.3625,756.7813 Q1196.3625,757.9375 1194.7688,758.5938 Q1192.6125,759.5 1190.0188,759.5 Q1186.9875,759.5 1184.5813,758.25 Q1182.6125,757.25 1181.2375,755.125 Q1179.8625,752.9688 1179.8625,750.4063 L1179.8625,748.0938 Q1179.8625,745.4375 1181.0813,743.1563 Q1182.3313,740.8438 1184.5188,739.625 Q1186.7063,738.375 1189.175,738.375 Q1190.6438,738.375 1191.925,738.7188 Q1193.2375,739.0313 1194.3313,739.75 Z "/><text fill="#000000" font-family="sans-serif" font-size="24" lengthAdjust="spacingAndGlyphs" textLength="144" x="1227.2" y="757.8203">PoseResults</text><line style="stroke: #A80036; stroke-width: 3.0;" x1="1114" x2="1422" y1="780" y2="780"/><rect fill="none" height="12" style="stroke: #C82930; stroke-width: 2.0;" width="12" x="1128" y="796"/><text fill="#000000" font-family="sans-serif" font-size="22" lengthAdjust="spacingAndGlyphs" textLength="260" x="1152" y="810.8379">List&lt;GolfPoses&gt; golfPoses</text><rect fill="none" height="12" style="stroke: #C82930; stroke-width: 2.0;" width="12" x="1128" y="823.6719"/><text fill="#000000" font-family="sans-serif" font-size="22" lengthAdjust="spacingAndGlyphs" textLength="134" x="1152" y="838.5098">String handed</text><line style="stroke: #A80036; stroke-width: 3.0;" x1="1114" x2="1422" y1="851.3438" y2="851.3438"/><rect fill="#F24D5C" height="12" style="stroke: #C82930; stroke-width: 2.0;" width="12" x="1128" y="867.3438"/><text fill="#000000" font-family="sans-serif" font-size="22" lengthAdjust="spacingAndGlyphs" textLength="234" x="1152" y="882.1816">(int, int) pose_sequence</text><!--MD5=[786718633b3669562b45a2316f41b669]
class ClubHeadResult--><rect fill="#FEFECE" filter="url(#fsvszfnovimdv)" height="123.6719" id="ClubHeadResult" style="stroke: #A80036; stroke-width: 3.0;" width="372" x="670" y="744"/><ellipse cx="755.8" cy="776" fill="#ADD1B2" rx="22" ry="22" style="stroke: #A80036; stroke-width: 2.0;"/><path d="M761.3313,767.75 Q761.6438,767.3125 762.0188,767.0938 Q762.3938,766.875 762.8313,766.875 Q763.5813,766.875 764.05,767.4063 Q764.5188,767.9063 764.5188,769.125 L764.5188,772.0313 Q764.5188,773.25 764.05,773.7813 Q763.5813,774.3125 762.8313,774.3125 Q762.1438,774.3125 761.7375,773.9063 Q761.3313,773.5313 761.1125,772.5 Q761.0188,771.7813 760.6438,771.4063 Q759.9875,770.6563 758.7688,770.2188 Q757.55,769.7813 756.3,769.7813 Q754.7688,769.7813 753.4875,770.4375 Q752.2375,771.0938 751.2375,772.5938 Q750.2688,774.0938 750.2688,776.1563 L750.2688,778.3438 Q750.2688,780.8125 752.05,782.4688 Q753.8313,784.0938 757.0188,784.0938 Q758.8938,784.0938 760.2063,783.5938 Q760.9875,783.2813 761.8313,782.4063 Q762.3625,781.875 762.6438,781.7188 Q762.9563,781.5625 763.3625,781.5625 Q764.0188,781.5625 764.5188,782.0938 Q765.05,782.5938 765.05,783.2813 Q765.05,783.9688 764.3625,784.7813 Q763.3625,785.9375 761.7688,786.5938 Q759.6125,787.5 757.0188,787.5 Q753.9875,787.5 751.5813,786.25 Q749.6125,785.25 748.2375,783.125 Q746.8625,780.9688 746.8625,778.4063 L746.8625,776.0938 Q746.8625,773.4375 748.0813,771.1563 Q749.3313,768.8438 751.5188,767.625 Q753.7063,766.375 756.175,766.375 Q757.6438,766.375 758.925,766.7188 Q760.2375,767.0313 761.3313,767.75 Z "/><text fill="#000000" font-family="sans-serif" font-size="24" lengthAdjust="spacingAndGlyphs" textLength="184" x="796.2" y="785.8203">ClubHeadResult</text><line style="stroke: #A80036; stroke-width: 3.0;" x1="672" x2="1040" y1="808" y2="808"/><line style="stroke: #A80036; stroke-width: 3.0;" x1="672" x2="1040" y1="824" y2="824"/><rect fill="#F24D5C" height="12" style="stroke: #C82930; stroke-width: 2.0;" width="12" x="686" y="840"/><text fill="#000000" font-family="sans-serif" font-size="22" lengthAdjust="spacingAndGlyphs" textLength="320" x="710" y="854.8379">List&lt;(int, int)&gt; screenCoordinates</text><!--MD5=[b56da73fadd2918e32b19e2a5280d6e0]
class PoseModel--><rect fill="#FEFECE" filter="url(#fsvszfnovimdv)" height="123.6719" id="PoseModel" style="stroke: #A80036; stroke-width: 3.0;" width="422" x="2647" y="408"/><ellipse cx="2787.5" cy="440" fill="#ADD1B2" rx="22" ry="22" style="stroke: #A80036; stroke-width: 2.0;"/><path d="M2793.0313,431.75 Q2793.3438,431.3125 2793.7188,431.0938 Q2794.0938,430.875 2794.5313,430.875 Q2795.2813,430.875 2795.75,431.4063 Q2796.2188,431.9063 2796.2188,433.125 L2796.2188,436.0313 Q2796.2188,437.25 2795.75,437.7813 Q2795.2813,438.3125 2794.5313,438.3125 Q2793.8438,438.3125 2793.4375,437.9063 Q2793.0313,437.5313 2792.8125,436.5 Q2792.7188,435.7813 2792.3438,435.4063 Q2791.6875,434.6563 2790.4688,434.2188 Q2789.25,433.7813 2788,433.7813 Q2786.4688,433.7813 2785.1875,434.4375 Q2783.9375,435.0938 2782.9375,436.5938 Q2781.9688,438.0938 2781.9688,440.1563 L2781.9688,442.3438 Q2781.9688,444.8125 2783.75,446.4688 Q2785.5313,448.0938 2788.7188,448.0938 Q2790.5938,448.0938 2791.9063,447.5938 Q2792.6875,447.2813 2793.5313,446.4063 Q2794.0625,445.875 2794.3438,445.7188 Q2794.6563,445.5625 2795.0625,445.5625 Q2795.7188,445.5625 2796.2188,446.0938 Q2796.75,446.5938 2796.75,447.2813 Q2796.75,447.9688 2796.0625,448.7813 Q2795.0625,449.9375 2793.4688,450.5938 Q2791.3125,451.5 2788.7188,451.5 Q2785.6875,451.5 2783.2813,450.25 Q2781.3125,449.25 2779.9375,447.125 Q2778.5625,444.9688 2778.5625,442.4063 L2778.5625,440.0938 Q2778.5625,437.4375 2779.7813,435.1563 Q2781.0313,432.8438 2783.2188,431.625 Q2785.4063,430.375 2787.875,430.375 Q2789.3438,430.375 2790.625,430.7188 Q2791.9375,431.0313 2793.0313,431.75 Z "/><text fill="#000000" font-family="sans-serif" font-size="24" lengthAdjust="spacingAndGlyphs" textLength="124" x="2828.5" y="449.8203">PoseModel</text><line style="stroke: #A80036; stroke-width: 3.0;" x1="2649" x2="3067" y1="472" y2="472"/><line style="stroke: #A80036; stroke-width: 3.0;" x1="2649" x2="3067" y1="488" y2="488"/><ellipse cx="2669" cy="510" fill="#84BE84" rx="6" ry="6" style="stroke: #038048; stroke-width: 2.0;"/><text fill="#000000" font-family="sans-serif" font-size="22" lengthAdjust="spacingAndGlyphs" textLength="370" x="2687" y="518.8379">PoseResults run(MediaPipeLandlands)</text><!--MD5=[25b5849fdf07050d2ae46d9d77aa6ee2]
class ClubHeadDetector--><rect fill="#FEFECE" filter="url(#fsvszfnovimdv)" height="123.6719" id="ClubHeadDetector" style="stroke: #A80036; stroke-width: 3.0;" width="360" x="12" y="408"/><ellipse cx="83.4" cy="440" fill="#ADD1B2" rx="22" ry="22" style="stroke: #A80036; stroke-width: 2.0;"/><path d="M88.9313,431.75 Q89.2438,431.3125 89.6188,431.0938 Q89.9938,430.875 90.4313,430.875 Q91.1813,430.875 91.65,431.4063 Q92.1188,431.9063 92.1188,433.125 L92.1188,436.0313 Q92.1188,437.25 91.65,437.7813 Q91.1813,438.3125 90.4313,438.3125 Q89.7438,438.3125 89.3375,437.9063 Q88.9313,437.5313 88.7125,436.5 Q88.6188,435.7813 88.2438,435.4063 Q87.5875,434.6563 86.3688,434.2188 Q85.15,433.7813 83.9,433.7813 Q82.3688,433.7813 81.0875,434.4375 Q79.8375,435.0938 78.8375,436.5938 Q77.8688,438.0938 77.8688,440.1563 L77.8688,442.3438 Q77.8688,444.8125 79.65,446.4688 Q81.4313,448.0938 84.6188,448.0938 Q86.4938,448.0938 87.8063,447.5938 Q88.5875,447.2813 89.4313,446.4063 Q89.9625,445.875 90.2438,445.7188 Q90.5563,445.5625 90.9625,445.5625 Q91.6188,445.5625 92.1188,446.0938 Q92.65,446.5938 92.65,447.2813 Q92.65,447.9688 91.9625,448.7813 Q90.9625,449.9375 89.3688,450.5938 Q87.2125,451.5 84.6188,451.5 Q81.5875,451.5 79.1813,450.25 Q77.2125,449.25 75.8375,447.125 Q74.4625,444.9688 74.4625,442.4063 L74.4625,440.0938 Q74.4625,437.4375 75.6813,435.1563 Q76.9313,432.8438 79.1188,431.625 Q81.3063,430.375 83.775,430.375 Q85.2438,430.375 86.525,430.7188 Q87.8375,431.0313 88.9313,431.75 Z "/><text fill="#000000" font-family="sans-serif" font-size="24" lengthAdjust="spacingAndGlyphs" textLength="204" x="120.6" y="449.8203">ClubHeadDetector</text><line style="stroke: #A80036; stroke-width: 3.0;" x1="14" x2="370" y1="472" y2="472"/><line style="stroke: #A80036; stroke-width: 3.0;" x1="14" x2="370" y1="488" y2="488"/><ellipse cx="34" cy="510" fill="#84BE84" rx="6" ry="6" style="stroke: #038048; stroke-width: 2.0;"/><text fill="#000000" font-family="sans-serif" font-size="22" lengthAdjust="spacingAndGlyphs" textLength="308" x="52" y="518.8379">ClubHeadResult run(GolfSwing)</text><!--MD5=[059c56479aeb843dae87207660d60015]
class GolfSwingFactory--><rect fill="#FEFECE" filter="url(#fsvszfnovimdv)" height="123.6719" id="GolfSwingFactory" style="stroke: #A80036; stroke-width: 3.0;" width="836" x="300" y="16"/><ellipse cx="614.5" cy="48" fill="#ADD1B2" rx="22" ry="22" style="stroke: #A80036; stroke-width: 2.0;"/><path d="M620.0313,39.75 Q620.3438,39.3125 620.7188,39.0938 Q621.0938,38.875 621.5313,38.875 Q622.2813,38.875 622.75,39.4063 Q623.2188,39.9063 623.2188,41.125 L623.2188,44.0313 Q623.2188,45.25 622.75,45.7813 Q622.2813,46.3125 621.5313,46.3125 Q620.8438,46.3125 620.4375,45.9063 Q620.0313,45.5313 619.8125,44.5 Q619.7188,43.7813 619.3438,43.4063 Q618.6875,42.6563 617.4688,42.2188 Q616.25,41.7813 615,41.7813 Q613.4688,41.7813 612.1875,42.4375 Q610.9375,43.0938 609.9375,44.5938 Q608.9688,46.0938 608.9688,48.1563 L608.9688,50.3438 Q608.9688,52.8125 610.75,54.4688 Q612.5313,56.0938 615.7188,56.0938 Q617.5938,56.0938 618.9063,55.5938 Q619.6875,55.2813 620.5313,54.4063 Q621.0625,53.875 621.3438,53.7188 Q621.6563,53.5625 622.0625,53.5625 Q622.7188,53.5625 623.2188,54.0938 Q623.75,54.5938 623.75,55.2813 Q623.75,55.9688 623.0625,56.7813 Q622.0625,57.9375 620.4688,58.5938 Q618.3125,59.5 615.7188,59.5 Q612.6875,59.5 610.2813,58.25 Q608.3125,57.25 606.9375,55.125 Q605.5625,52.9688 605.5625,50.4063 L605.5625,48.0938 Q605.5625,45.4375 606.7813,43.1563 Q608.0313,40.8438 610.2188,39.625 Q612.4063,38.375 614.875,38.375 Q616.3438,38.375 617.625,38.7188 Q618.9375,39.0313 620.0313,39.75 Z "/><text fill="#000000" font-family="sans-serif" font-size="24" lengthAdjust="spacingAndGlyphs" textLength="190" x="655.5" y="57.8203">GolfSwingFactory</text><line style="stroke: #A80036; stroke-width: 3.0;" x1="302" x2="1134" y1="80" y2="80"/><line style="stroke: #A80036; stroke-width: 3.0;" x1="302" x2="1134" y1="96" y2="96"/><ellipse cx="322" cy="118" fill="#84BE84" rx="6" ry="6" style="stroke: #038048; stroke-width: 2.0;"/><text fill="#000000" font-family="sans-serif" font-size="22" lengthAdjust="spacingAndGlyphs" text-decoration="underline" textLength="784" x="340" y="126.8379">GolfSwing create_from_video(String, PoseModel, ClubHeadDetector) : GolfSwing</text><!--MD5=[5aabca6dafa211fca776c56ecce5a613]
class GolfSwingRepository--><rect fill="#FEFECE" filter="url(#fsvszfnovimdv)" height="123.6719" id="GolfSwingRepository" style="stroke: #A80036; stroke-width: 3.0;" width="592" x="1206" y="16"/><ellipse cx="1378.5" cy="48" fill="#ADD1B2" rx="22" ry="22" style="stroke: #A80036; stroke-width: 2.0;"/><path d="M1384.0313,39.75 Q1384.3438,39.3125 1384.7188,39.0938 Q1385.0938,38.875 1385.5313,38.875 Q1386.2813,38.875 1386.75,39.4063 Q1387.2188,39.9063 1387.2188,41.125 L1387.2188,44.0313 Q1387.2188,45.25 1386.75,45.7813 Q1386.2813,46.3125 1385.5313,46.3125 Q1384.8438,46.3125 1384.4375,45.9063 Q1384.0313,45.5313 1383.8125,44.5 Q1383.7188,43.7813 1383.3438,43.4063 Q1382.6875,42.6563 1381.4688,42.2188 Q1380.25,41.7813 1379,41.7813 Q1377.4688,41.7813 1376.1875,42.4375 Q1374.9375,43.0938 1373.9375,44.5938 Q1372.9688,46.0938 1372.9688,48.1563 L1372.9688,50.3438 Q1372.9688,52.8125 1374.75,54.4688 Q1376.5313,56.0938 1379.7188,56.0938 Q1381.5938,56.0938 1382.9063,55.5938 Q1383.6875,55.2813 1384.5313,54.4063 Q1385.0625,53.875 1385.3438,53.7188 Q1385.6563,53.5625 1386.0625,53.5625 Q1386.7188,53.5625 1387.2188,54.0938 Q1387.75,54.5938 1387.75,55.2813 Q1387.75,55.9688 1387.0625,56.7813 Q1386.0625,57.9375 1384.4688,58.5938 Q1382.3125,59.5 1379.7188,59.5 Q1376.6875,59.5 1374.2813,58.25 Q1372.3125,57.25 1370.9375,55.125 Q1369.5625,52.9688 1369.5625,50.4063 L1369.5625,48.0938 Q1369.5625,45.4375 1370.7813,43.1563 Q1372.0313,40.8438 1374.2188,39.625 Q1376.4063,38.375 1378.875,38.375 Q1380.3438,38.375 1381.625,38.7188 Q1382.9375,39.0313 1384.0313,39.75 Z "/><text fill="#000000" font-family="sans-serif" font-size="24" lengthAdjust="spacingAndGlyphs" textLength="230" x="1419.5" y="57.8203">GolfSwingRepository</text><line style="stroke: #A80036; stroke-width: 3.0;" x1="1208" x2="1796" y1="80" y2="80"/><line style="stroke: #A80036; stroke-width: 3.0;" x1="1208" x2="1796" y1="96" y2="96"/><ellipse cx="1228" cy="118" fill="#84BE84" rx="6" ry="6" style="stroke: #038048; stroke-width: 2.0;"/><text fill="#000000" font-family="sans-serif" font-size="22" lengthAdjust="spacingAndGlyphs" textLength="540" x="1246" y="126.8379">GolfSwing reconstitute(String, List&lt;String&gt;) : GolfSwing</text><!--MD5=[b6bf7795e76384cd1f9bed46e9e9df8b]
class media_pipe_operations--><rect fill="#FEFECE" filter="url(#fsvszfnovimdv)" height="96" id="media_pipe_operations" style="stroke: #A80036; stroke-width: 3.0;" width="328" x="3140" y="422"/><ellipse cx="3170" cy="454" fill="#ADD1B2" rx="22" ry="22" style="stroke: #A80036; stroke-width: 2.0;"/><path d="M3175.5313,445.75 Q3175.8438,445.3125 3176.2188,445.0938 Q3176.5938,444.875 3177.0313,444.875 Q3177.7813,444.875 3178.25,445.4063 Q3178.7188,445.9063 3178.7188,447.125 L3178.7188,450.0313 Q3178.7188,451.25 3178.25,451.7813 Q3177.7813,452.3125 3177.0313,452.3125 Q3176.3438,452.3125 3175.9375,451.9063 Q3175.5313,451.5313 3175.3125,450.5 Q3175.2188,449.7813 3174.8438,449.4063 Q3174.1875,448.6563 3172.9688,448.2188 Q3171.75,447.7813 3170.5,447.7813 Q3168.9688,447.7813 3167.6875,448.4375 Q3166.4375,449.0938 3165.4375,450.5938 Q3164.4688,452.0938 3164.4688,454.1563 L3164.4688,456.3438 Q3164.4688,458.8125 3166.25,460.4688 Q3168.0313,462.0938 3171.2188,462.0938 Q3173.0938,462.0938 3174.4063,461.5938 Q3175.1875,461.2813 3176.0313,460.4063 Q3176.5625,459.875 3176.8438,459.7188 Q3177.1563,459.5625 3177.5625,459.5625 Q3178.2188,459.5625 3178.7188,460.0938 Q3179.25,460.5938 3179.25,461.2813 Q3179.25,461.9688 3178.5625,462.7813 Q3177.5625,463.9375 3175.9688,464.5938 Q3173.8125,465.5 3171.2188,465.5 Q3168.1875,465.5 3165.7813,464.25 Q3163.8125,463.25 3162.4375,461.125 Q3161.0625,458.9688 3161.0625,456.4063 L3161.0625,454.0938 Q3161.0625,451.4375 3162.2813,449.1563 Q3163.5313,446.8438 3165.7188,445.625 Q3167.9063,444.375 3170.375,444.375 Q3171.8438,444.375 3173.125,444.7188 Q3174.4375,445.0313 3175.5313,445.75 Z "/><text fill="#000000" font-family="sans-serif" font-size="24" lengthAdjust="spacingAndGlyphs" textLength="264" x="3198" y="463.8203">media_pipe_operations</text><line style="stroke: #A80036; stroke-width: 3.0;" x1="3142" x2="3466" y1="486" y2="486"/><line style="stroke: #A80036; stroke-width: 3.0;" x1="3142" x2="3466" y1="502" y2="502"/><path d="M2051,444 L2051,462 L1610.736,470 L2051,478 L2051,496.7031 A0,0 0 0 0 2051,496.7031 L2345,496.7031 A0,0 0 0 0 2345,496.7031 L2345,464 L2325,444 L2051,444 A0,0 0 0 0 2051,444 " fill="#FBFB77" filter="url(#fsvszfnovimdv)" style="stroke: #A80036; stroke-width: 2.0;"/><path d="M2325,444 L2325,464 L2345,464 L2325,444 " fill="#FBFB77" style="stroke: #A80036; stroke-width: 2.0;"/><text fill="#000000" font-family="sans-serif" font-size="26" lengthAdjust="spacingAndGlyphs" textLength="252" x="2063" y="480.9902">Root of the Aggregate</text><path d="M443,444 L443,462 L372.266,470 L443,478 L443,496.7031 A0,0 0 0 0 443,496.7031 L605,496.7031 A0,0 0 0 0 605,496.7031 L605,464 L585,444 L443,444 A0,0 0 0 0 443,444 " fill="#FBFB77" filter="url(#fsvszfnovimdv)" style="stroke: #A80036; stroke-width: 2.0;"/><path d="M585,444 L585,464 L605,464 L585,444 " fill="#FBFB77" style="stroke: #A80036; stroke-width: 2.0;"/><text fill="#000000" font-family="sans-serif" font-size="26" lengthAdjust="spacingAndGlyphs" textLength="120" x="455" y="480.9902">Decorator.</text><path d="M2415,444 L2415,496.7031 A0,0 0 0 0 2415,496.7031 L2577,496.7031 A0,0 0 0 0 2577,496.7031 L2577,480 L2646.94,470 L2577,464 L2577,464 L2557,444 L2415,444 A0,0 0 0 0 2415,444 " fill="#FBFB77" filter="url(#fsvszfnovimdv)" style="stroke: #A80036; stroke-width: 2.0;"/><path d="M2557,444 L2557,464 L2577,464 L2557,444 " fill="#FBFB77" style="stroke: #A80036; stroke-width: 2.0;"/><text fill="#000000" font-family="sans-serif" font-size="26" lengthAdjust="spacingAndGlyphs" textLength="120" x="2427" y="480.9902">Decorator.</text><!--MD5=[43f531dc6e04c5b4875fb190fc9f6f73]
link media_pipe_operations to MediaPipeLandmarks--><path d="M3211.64,518.118 C3178.36,533.256 3140.1,548.998 3104,560 C2727.14,674.83 2274.24,742.596 1996.818,776.522 " fill="none" id="media_pipe_operations-&gt;MediaPipeLandmarks" style="stroke: #A80036; stroke-width: 2.0; stroke-dasharray: 7.0,7.0;"/><polygon fill="#A80036" points="1986.204,777.8138,2005.0389,783.5798,1996.1307,776.6052,2003.1052,767.697,1986.204,777.8138" style="stroke: #A80036; stroke-width: 2.0;"/><text fill="#000000" font-family="sans-serif" font-size="26" lengthAdjust="spacingAndGlyphs" textLength="126" x="2850" y="648.9902">creates &gt;&gt;</text><!--MD5=[ae9e4f9c4903d8877f53dc8ee5f523e5]
link PoseModel to PoseResults--><path d="M2705.32,532.184 C2674.76,542.642 2642.62,552.538 2612,560 C2109.16,682.498 1954.814,570.956 1458,716 C1449.974,718.344 1441.856,720.976 1433.728,723.826 " fill="none" id="PoseModel-&gt;PoseResults" style="stroke: #A80036; stroke-width: 2.0; stroke-dasharray: 7.0,7.0;"/><polygon fill="#A80036" points="1424.188,727.27,1443.8347,728.6868,1433.5946,723.8764,1438.405,713.6363,1424.188,727.27" style="stroke: #A80036; stroke-width: 2.0;"/><text fill="#000000" font-family="sans-serif" font-size="26" lengthAdjust="spacingAndGlyphs" textLength="126" x="2236" y="648.9902">creates &gt;&gt;</text><!--MD5=[23e3db518deda7f4ec9899e8fc5a3bd8]
link ClubHeadDetector to ClubHeadResult--><path d="M312.246,532.122 C429.164,590.582 606.218,679.11 726.264,739.132 " fill="none" id="ClubHeadDetector-&gt;ClubHeadResult" style="stroke: #A80036; stroke-width: 2.0; stroke-dasharray: 7.0,7.0;"/><polygon fill="#A80036" points="735.53,743.764,723.008,728.5587,726.5857,739.2919,715.8526,742.8696,735.53,743.764" style="stroke: #A80036; stroke-width: 2.0;"/><text fill="#000000" font-family="sans-serif" font-size="26" lengthAdjust="spacingAndGlyphs" textLength="126" x="546" y="648.9902">creates &gt;&gt;</text><!--MD5=[75f030cc69715e8adcda55d17a5922ef]
reverse link GolfSwing to ClubHeadDetector--><path d="M1243.766,375.546 C1038.622,276.244 688.46,148.918 408,262 C335.576,291.202 273.866,357.594 235.18,407.568 " fill="none" id="GolfSwing&lt;-ClubHeadDetector" style="stroke: #A80036; stroke-width: 2.0;"/><polygon fill="#A80036" points="1252.818,379.954,1240.1393,364.8791,1243.8279,375.5747,1233.1324,379.2632,1252.818,379.954" style="stroke: #A80036; stroke-width: 2.0;"/><text fill="#000000" font-family="sans-serif" font-size="26" lengthAdjust="spacingAndGlyphs" textLength="154" x="445" y="228.9902">decorates &gt;&gt;</text><!--MD5=[5159e182b077b2dbdc73293d6869d679]
reverse link GolfSwing to PoseModel--><path d="M1610.812,375.994 C1852.17,272.998 2272.98,137.886 2612,262 C2690.78,290.842 2761.7,357.296 2806.92,407.382 " fill="none" id="GolfSwing&lt;-PoseModel" style="stroke: #A80036; stroke-width: 2.0;"/><polygon fill="#A80036" points="1601.592,379.95,1621.2881,380.1986,1610.7806,376.0043,1614.975,365.4967,1601.592,379.95" style="stroke: #A80036; stroke-width: 2.0;"/><text fill="#000000" font-family="sans-serif" font-size="26" lengthAdjust="spacingAndGlyphs" textLength="154" x="2061" y="228.9902">decorates &gt;&gt;</text><!--MD5=[42752f0afd81dc3d1a8687b16190d4e2]
link GolfSwingFactory to GolfSwing--><path d="M826.296,140.2 C939.042,202.872 1117.13,301.866 1248.124,374.682 " fill="none" id="GolfSwingFactory-&gt;GolfSwing" style="stroke: #A80036; stroke-width: 2.0; stroke-dasharray: 7.0,7.0;"/><polygon fill="#A80036" points="1257.472,379.878,1245.6223,364.1432,1248.7304,375.0216,1237.852,378.1297,1257.472,379.878" style="stroke: #A80036; stroke-width: 2.0;"/><text fill="#000000" font-family="sans-serif" font-size="26" lengthAdjust="spacingAndGlyphs" textLength="126" x="986" y="228.9902">creates &gt;&gt;</text><!--MD5=[a1a37bf5692c97b53f28d1bd41ffdce5]
link GolfSwingRepository to GolfSwing--><path d="M1488.562,140.624 C1475.01,201.772 1453.862,297.18 1437.886,369.256 " fill="none" id="GolfSwingRepository-&gt;GolfSwing" style="stroke: #A80036; stroke-width: 2.0; stroke-dasharray: 7.0,7.0;"/><polygon fill="#A80036" points="1435.568,379.714,1447.2719,363.8705,1437.731,369.9507,1431.6507,360.4097,1435.568,379.714" style="stroke: #A80036; stroke-width: 2.0;"/><text fill="#000000" font-family="sans-serif" font-size="26" lengthAdjust="spacingAndGlyphs" textLength="120" x="1478" y="228.9902">returns &gt;&gt;</text><!--MD5=[73eafc5150ac1f797e36140ff75d01b5]
link GolfSwing to MediaPipeLandmarks--><path d="M1518.7383,577.2743 C1518.7383,577.2743 1609.052,669.818 1648.976,710.728 " fill="none" id="GolfSwing-MediaPipeLandmarks" style="stroke: #A80036; stroke-width: 2.0;"/><polygon fill="#A80036" points="1667.352,729.558,1660.5057,711.0883,1660.3677,722.4012,1649.0549,722.2632,1667.352,729.558" style="stroke: #A80036; stroke-width: 2.0;"/><line style="stroke: #A80036; stroke-width: 2.0;" x1="1660.3677" x2="1649.193" y1="722.4012" y2="710.952"/><polygon fill="#FFFFFF" points="1501.976,560.098,1504.6317,574.2736,1518.7383,577.2743,1516.0826,563.0987,1501.976,560.098" style="stroke: #A80036; stroke-width: 2.0;"/><text fill="#000000" font-family="sans-serif" font-size="26" lengthAdjust="spacingAndGlyphs" textLength="72" x="1588" y="648.9902">stores</text><polygon fill="#000000" points="1615,666.7031,1621,678.7031,1627,666.7031,1615,666.7031" style="stroke: #000000; stroke-width: 2.0;"/><!--MD5=[2c9de45777b53edc2b8287655cc41434]
link GolfSwing to PoseResults--><path d="M1366.956,582.0185 C1366.956,582.0185 1333.612,656.818 1318.14,691.524 " fill="none" id="GolfSwing-PoseResults" style="stroke: #A80036; stroke-width: 2.0;"/><polygon fill="#A80036" points="1307.456,715.49,1322.0913,702.3063,1311.5273,706.3563,1307.4773,695.7923,1307.456,715.49" style="stroke: #A80036; stroke-width: 2.0;"/><line style="stroke: #A80036; stroke-width: 2.0;" x1="1311.5273" x2="1318.042" y1="706.3563" y2="691.743"/><polygon fill="#FFFFFF" points="1376.728,560.098,1364.5352,567.8009,1366.956,582.0185,1379.1488,574.3156,1376.728,560.098" style="stroke: #A80036; stroke-width: 2.0;"/><text fill="#000000" font-family="sans-serif" font-size="26" lengthAdjust="spacingAndGlyphs" textLength="72" x="1350" y="648.9902">stores</text><polygon fill="#000000" points="1377,666.7031,1383,678.7031,1389,666.7031,1377,666.7031" style="stroke: #000000; stroke-width: 2.0;"/><!--MD5=[6ae223e52934938f7ecaf8c6d849109f]
link GolfSwing to ClubHeadResult--><path d="M1246.7555,572.3375 C1246.7555,572.3375 1058.032,684.224 980.282,730.318 " fill="none" id="GolfSwing-ClubHeadResult" style="stroke: #A80036; stroke-width: 2.0;"/><polygon fill="#A80036" points="957.468,743.844,977.0311,741.5448,966.0696,738.7437,968.8706,727.7822,957.468,743.844" style="stroke: #A80036; stroke-width: 2.0;"/><line style="stroke: #A80036; stroke-width: 2.0;" x1="966.0696" x2="979.833" y1="738.7437" y2="730.585"/><polygon fill="#FFFFFF" points="1267.4,560.098,1252.9979,559.3363,1246.7555,572.3375,1261.1576,573.0993,1267.4,560.098" style="stroke: #A80036; stroke-width: 2.0;"/><polygon fill="#000000" points="1170,635.3516,1158,641.3516,1170,647.3516,1170,635.3516" style="stroke: #000000; stroke-width: 2.0;"/><text fill="#000000" font-family="sans-serif" font-size="26" lengthAdjust="spacingAndGlyphs" textLength="72" x="1182" y="648.9902">stores</text><!--MD5=[5457c05517752a228d2156b32de1beac]
@startuml
scale 2

package "GolfSwing Aggregate" {
    class GolfSwing {
      - MediaPipeLandmarks mp_results
      - PoseResults pose_results
      - ClubHeadResult club_head_results
    }

    class MediaPipeLandmarks {
      - List video_landmarks
      + (x, y) get_norm_point(frame_idx, point_name)
    }

    class PoseResults {
      - List<GolfPoses> golfPoses
      - (int, int) pose_sequence
      - String handed
    }

    class ClubHeadResult {
      - List<(int, int)> screenCoordinates
    }
}

class PoseModel {
  + PoseResults run(MediaPipeLandlands)
}

class ClubHeadDetector {
  + ClubHeadResult run(GolfSwing)
}

class GolfSwingFactory {
  + {static} GolfSwing create_from_video(String, PoseModel, ClubHeadDetector) : GolfSwing
}

class GolfSwingRepository {
  + GolfSwing reconstitute(String, List<String>) : GolfSwing
}

media_pipe_operations ..> MediaPipeLandmarks : creates >>
PoseModel ..> PoseResults : creates >>
ClubHeadDetector ..> ClubHeadResult : creates >>
ClubHeadDetector -left-> GolfSwing : decorates >>
PoseModel -left-> GolfSwing : decorates >>
GolfSwingFactory ..> GolfSwing : creates >>
GolfSwingRepository ..> GolfSwing : returns >>

GolfSwing o-down-> MediaPipeLandmarks : stores >
GolfSwing o-down-> PoseResults : stores >
GolfSwing o-down-> ClubHeadResult : stores >

note "Root of the Aggregate" as N1
N1 .left.> GolfSwing
note "Decorator." as N2
N2 .left.> ClubHeadDetector
note "Decorator." as N3
N3 .right.> PoseModel

@enduml

PlantUML version 1.2020.02(Sun Mar 01 05:22:07 EST 2020)
(GPL source distribution)
Java Runtime: Java(TM) SE Runtime Environment
JVM: Java HotSpot(TM) 64-Bit Server VM
Java Version: 17.0.8+9-LTS-211
Operating System: Windows 10
Default Encoding: Cp1252
Language: en
Country: US
--></g></svg>