<?xml version="1.0" encoding="UTF-8" standalone="no"?><svg xmlns="http://www.w3.org/2000/svg" xmlns:xlink="http://www.w3.org/1999/xlink" contentScriptType="application/ecmascript" contentStyleType="text/css" height="476px" preserveAspectRatio="none" style="width:1745px;height:476px;" version="1.1" viewBox="0 0 1745 476" width="1745px" zoomAndPan="magnify"><defs><filter height="300%" id="fghcglz3ygr4e" width="300%" x="-1" y="-1"><feGaussianBlur result="blurOut" stdDeviation="2.0"/><feColorMatrix in="blurOut" result="blurOut2" type="matrix" values="0 0 0 0 0 0 0 0 0 0 0 0 0 0 0 0 0 0 .4 0"/><feOffset dx="4.0" dy="4.0" in="blurOut2" result="blurOut3"/><feBlend in="SourceGraphic" in2="blurOut3" mode="normal"/></filter></defs><g><!--MD5=[2fc911db6b22b0fb01c8870726a700de]
cluster GolfSwing Aggregate--><polygon fill="#FFFFFF" filter="url(#fghcglz3ygr4e)" points="319,134,473,134,480,157.6094,1009,157.6094,1009,464,319,464,319,134" style="stroke: #000000; stroke-width: 1.5;"/><line style="stroke: #000000; stroke-width: 1.5;" x1="319" x2="480" y1="157.6094" y2="157.6094"/><text fill="#000000" font-family="sans-serif" font-size="14" font-weight="bold" lengthAdjust="spacingAndGlyphs" textLength="148" x="323" y="150.5332">GolfSwing Aggregate</text><!--MD5=[b35a7296e234cf3b3602d402d9fdf52b]
class GolfSwing--><rect fill="#FEFECE" filter="url(#fghcglz3ygr4e)" height="89.5078" id="GolfSwing" style="stroke: #A80036; stroke-width: 1.5;" width="194" x="611" y="190"/><ellipse cx="675.75" cy="206" fill="#ADD1B2" rx="11" ry="11" style="stroke: #A80036; stroke-width: 1.0;"/><path d="M678.5156,201.875 Q678.6719,201.6563 678.8594,201.5469 Q679.0469,201.4375 679.2656,201.4375 Q679.6406,201.4375 679.875,201.7031 Q680.1094,201.9531 680.1094,202.5625 L680.1094,204.0156 Q680.1094,204.625 679.875,204.8906 Q679.6406,205.1563 679.2656,205.1563 Q678.9219,205.1563 678.7188,204.9531 Q678.5156,204.7656 678.4063,204.25 Q678.3594,203.8906 678.1719,203.7031 Q677.8438,203.3281 677.2344,203.1094 Q676.625,202.8906 676,202.8906 Q675.2344,202.8906 674.5938,203.2188 Q673.9688,203.5469 673.4688,204.2969 Q672.9844,205.0469 672.9844,206.0781 L672.9844,207.1719 Q672.9844,208.4063 673.875,209.2344 Q674.7656,210.0469 676.3594,210.0469 Q677.2969,210.0469 677.9531,209.7969 Q678.3438,209.6406 678.7656,209.2031 Q679.0313,208.9375 679.1719,208.8594 Q679.3281,208.7813 679.5313,208.7813 Q679.8594,208.7813 680.1094,209.0469 Q680.375,209.2969 680.375,209.6406 Q680.375,209.9844 680.0313,210.3906 Q679.5313,210.9688 678.7344,211.2969 Q677.6563,211.75 676.3594,211.75 Q674.8438,211.75 673.6406,211.125 Q672.6563,210.625 671.9688,209.5625 Q671.2813,208.4844 671.2813,207.2031 L671.2813,206.0469 Q671.2813,204.7188 671.8906,203.5781 Q672.5156,202.4219 673.6094,201.8125 Q674.7031,201.1875 675.9375,201.1875 Q676.6719,201.1875 677.3125,201.3594 Q677.9688,201.5156 678.5156,201.875 Z "/><text fill="#000000" font-family="sans-serif" font-size="12" lengthAdjust="spacingAndGlyphs" textLength="56" x="696.25" y="210.9102">GolfSwing</text><line style="stroke: #A80036; stroke-width: 1.5;" x1="612" x2="804" y1="222" y2="222"/><rect fill="none" height="6" style="stroke: #C82930; stroke-width: 1.0;" width="6" x="619" y="230"/><text fill="#000000" font-family="sans-serif" font-size="11" lengthAdjust="spacingAndGlyphs" textLength="157" x="631" y="237.4189">MediaPipeLandmarks mp_results</text><rect fill="none" height="6" style="stroke: #C82930; stroke-width: 1.0;" width="6" x="619" y="243.8359"/><text fill="#000000" font-family="sans-serif" font-size="11" lengthAdjust="spacingAndGlyphs" textLength="126" x="631" y="251.2549">PoseResults pose_results</text><rect fill="none" height="6" style="stroke: #C82930; stroke-width: 1.0;" width="6" x="619" y="257.6719"/><text fill="#000000" font-family="sans-serif" font-size="11" lengthAdjust="spacingAndGlyphs" textLength="168" x="631" y="265.0908">ClubHeadResult club_head_results</text><line style="stroke: #A80036; stroke-width: 1.5;" x1="612" x2="804" y1="271.5078" y2="271.5078"/><!--MD5=[a7c684dea60b25acca193302eecbd3fa]
class MediaPipeLandmarks--><rect fill="#FEFECE" filter="url(#fghcglz3ygr4e)" height="75.6719" id="MediaPipeLandmarks" style="stroke: #A80036; stroke-width: 1.5;" width="246" x="747" y="365"/><ellipse cx="805.25" cy="381" fill="#ADD1B2" rx="11" ry="11" style="stroke: #A80036; stroke-width: 1.0;"/><path d="M808.0156,376.875 Q808.1719,376.6563 808.3594,376.5469 Q808.5469,376.4375 808.7656,376.4375 Q809.1406,376.4375 809.375,376.7031 Q809.6094,376.9531 809.6094,377.5625 L809.6094,379.0156 Q809.6094,379.625 809.375,379.8906 Q809.1406,380.1563 808.7656,380.1563 Q808.4219,380.1563 808.2188,379.9531 Q808.0156,379.7656 807.9063,379.25 Q807.8594,378.8906 807.6719,378.7031 Q807.3438,378.3281 806.7344,378.1094 Q806.125,377.8906 805.5,377.8906 Q804.7344,377.8906 804.0938,378.2188 Q803.4688,378.5469 802.9688,379.2969 Q802.4844,380.0469 802.4844,381.0781 L802.4844,382.1719 Q802.4844,383.4063 803.375,384.2344 Q804.2656,385.0469 805.8594,385.0469 Q806.7969,385.0469 807.4531,384.7969 Q807.8438,384.6406 808.2656,384.2031 Q808.5313,383.9375 808.6719,383.8594 Q808.8281,383.7813 809.0313,383.7813 Q809.3594,383.7813 809.6094,384.0469 Q809.875,384.2969 809.875,384.6406 Q809.875,384.9844 809.5313,385.3906 Q809.0313,385.9688 808.2344,386.2969 Q807.1563,386.75 805.8594,386.75 Q804.3438,386.75 803.1406,386.125 Q802.1563,385.625 801.4688,384.5625 Q800.7813,383.4844 800.7813,382.2031 L800.7813,381.0469 Q800.7813,379.7188 801.3906,378.5781 Q802.0156,377.4219 803.1094,376.8125 Q804.2031,376.1875 805.4375,376.1875 Q806.1719,376.1875 806.8125,376.3594 Q807.4688,376.5156 808.0156,376.875 Z "/><text fill="#000000" font-family="sans-serif" font-size="12" lengthAdjust="spacingAndGlyphs" textLength="121" x="825.75" y="385.9102">MediaPipeLandmarks</text><line style="stroke: #A80036; stroke-width: 1.5;" x1="748" x2="992" y1="397" y2="397"/><rect fill="none" height="6" style="stroke: #C82930; stroke-width: 1.0;" width="6" x="755" y="405"/><text fill="#000000" font-family="sans-serif" font-size="11" lengthAdjust="spacingAndGlyphs" textLength="101" x="767" y="412.4189">List video_landmarks</text><line style="stroke: #A80036; stroke-width: 1.5;" x1="748" x2="992" y1="418.8359" y2="418.8359"/><ellipse cx="758" cy="429.8359" fill="#84BE84" rx="3" ry="3" style="stroke: #038048; stroke-width: 1.0;"/><text fill="#000000" font-family="sans-serif" font-size="11" lengthAdjust="spacingAndGlyphs" textLength="220" x="767" y="434.2549">(x, y) get_norm_point(frame_idx, point_name)</text><!--MD5=[089efc1baf2c0246d4a1a3318d344ee3]
class PoseResults--><rect fill="#FEFECE" filter="url(#fghcglz3ygr4e)" height="89.5078" id="PoseResults" style="stroke: #A80036; stroke-width: 1.5;" width="156" x="556" y="358"/><ellipse cx="594.4" cy="374" fill="#ADD1B2" rx="11" ry="11" style="stroke: #A80036; stroke-width: 1.0;"/><path d="M597.1656,369.875 Q597.3219,369.6563 597.5094,369.5469 Q597.6969,369.4375 597.9156,369.4375 Q598.2906,369.4375 598.525,369.7031 Q598.7594,369.9531 598.7594,370.5625 L598.7594,372.0156 Q598.7594,372.625 598.525,372.8906 Q598.2906,373.1563 597.9156,373.1563 Q597.5719,373.1563 597.3688,372.9531 Q597.1656,372.7656 597.0563,372.25 Q597.0094,371.8906 596.8219,371.7031 Q596.4938,371.3281 595.8844,371.1094 Q595.275,370.8906 594.65,370.8906 Q593.8844,370.8906 593.2438,371.2188 Q592.6188,371.5469 592.1188,372.2969 Q591.6344,373.0469 591.6344,374.0781 L591.6344,375.1719 Q591.6344,376.4063 592.525,377.2344 Q593.4156,378.0469 595.0094,378.0469 Q595.9469,378.0469 596.6031,377.7969 Q596.9938,377.6406 597.4156,377.2031 Q597.6813,376.9375 597.8219,376.8594 Q597.9781,376.7813 598.1813,376.7813 Q598.5094,376.7813 598.7594,377.0469 Q599.025,377.2969 599.025,377.6406 Q599.025,377.9844 598.6813,378.3906 Q598.1813,378.9688 597.3844,379.2969 Q596.3063,379.75 595.0094,379.75 Q593.4938,379.75 592.2906,379.125 Q591.3063,378.625 590.6188,377.5625 Q589.9313,376.4844 589.9313,375.2031 L589.9313,374.0469 Q589.9313,372.7188 590.5406,371.5781 Q591.1656,370.4219 592.2594,369.8125 Q593.3531,369.1875 594.5875,369.1875 Q595.3219,369.1875 595.9625,369.3594 Q596.6188,369.5156 597.1656,369.875 Z "/><text fill="#000000" font-family="sans-serif" font-size="12" lengthAdjust="spacingAndGlyphs" textLength="72" x="613.6" y="378.9102">PoseResults</text><line style="stroke: #A80036; stroke-width: 1.5;" x1="557" x2="711" y1="390" y2="390"/><rect fill="none" height="6" style="stroke: #C82930; stroke-width: 1.0;" width="6" x="564" y="398"/><text fill="#000000" font-family="sans-serif" font-size="11" lengthAdjust="spacingAndGlyphs" textLength="130" x="576" y="405.4189">List&lt;GolfPoses&gt; golfPoses</text><rect fill="none" height="6" style="stroke: #C82930; stroke-width: 1.0;" width="6" x="564" y="411.8359"/><text fill="#000000" font-family="sans-serif" font-size="11" lengthAdjust="spacingAndGlyphs" textLength="67" x="576" y="419.2549">String handed</text><line style="stroke: #A80036; stroke-width: 1.5;" x1="557" x2="711" y1="425.6719" y2="425.6719"/><rect fill="#F24D5C" height="6" style="stroke: #C82930; stroke-width: 1.0;" width="6" x="564" y="433.6719"/><text fill="#000000" font-family="sans-serif" font-size="11" lengthAdjust="spacingAndGlyphs" textLength="117" x="576" y="441.0908">(int, int) pose_sequence</text><!--MD5=[786718633b3669562b45a2316f41b669]
class ClubHeadResult--><rect fill="#FEFECE" filter="url(#fghcglz3ygr4e)" height="61.8359" id="ClubHeadResult" style="stroke: #A80036; stroke-width: 1.5;" width="186" x="335" y="372"/><ellipse cx="377.9" cy="388" fill="#ADD1B2" rx="11" ry="11" style="stroke: #A80036; stroke-width: 1.0;"/><path d="M380.6656,383.875 Q380.8219,383.6563 381.0094,383.5469 Q381.1969,383.4375 381.4156,383.4375 Q381.7906,383.4375 382.025,383.7031 Q382.2594,383.9531 382.2594,384.5625 L382.2594,386.0156 Q382.2594,386.625 382.025,386.8906 Q381.7906,387.1563 381.4156,387.1563 Q381.0719,387.1563 380.8688,386.9531 Q380.6656,386.7656 380.5563,386.25 Q380.5094,385.8906 380.3219,385.7031 Q379.9938,385.3281 379.3844,385.1094 Q378.775,384.8906 378.15,384.8906 Q377.3844,384.8906 376.7438,385.2188 Q376.1188,385.5469 375.6188,386.2969 Q375.1344,387.0469 375.1344,388.0781 L375.1344,389.1719 Q375.1344,390.4063 376.025,391.2344 Q376.9156,392.0469 378.5094,392.0469 Q379.4469,392.0469 380.1031,391.7969 Q380.4938,391.6406 380.9156,391.2031 Q381.1813,390.9375 381.3219,390.8594 Q381.4781,390.7813 381.6813,390.7813 Q382.0094,390.7813 382.2594,391.0469 Q382.525,391.2969 382.525,391.6406 Q382.525,391.9844 382.1813,392.3906 Q381.6813,392.9688 380.8844,393.2969 Q379.8063,393.75 378.5094,393.75 Q376.9938,393.75 375.7906,393.125 Q374.8063,392.625 374.1188,391.5625 Q373.4313,390.4844 373.4313,389.2031 L373.4313,388.0469 Q373.4313,386.7188 374.0406,385.5781 Q374.6656,384.4219 375.7594,383.8125 Q376.8531,383.1875 378.0875,383.1875 Q378.8219,383.1875 379.4625,383.3594 Q380.1188,383.5156 380.6656,383.875 Z "/><text fill="#000000" font-family="sans-serif" font-size="12" lengthAdjust="spacingAndGlyphs" textLength="92" x="398.1" y="392.9102">ClubHeadResult</text><line style="stroke: #A80036; stroke-width: 1.5;" x1="336" x2="520" y1="404" y2="404"/><line style="stroke: #A80036; stroke-width: 1.5;" x1="336" x2="520" y1="412" y2="412"/><rect fill="#F24D5C" height="6" style="stroke: #C82930; stroke-width: 1.0;" width="6" x="343" y="420"/><text fill="#000000" font-family="sans-serif" font-size="11" lengthAdjust="spacingAndGlyphs" textLength="160" x="355" y="427.4189">List&lt;(int, int)&gt; screenCoordinates</text><!--MD5=[b56da73fadd2918e32b19e2a5280d6e0]
class PoseModel--><rect fill="#FEFECE" filter="url(#fghcglz3ygr4e)" height="61.8359" id="PoseModel" style="stroke: #A80036; stroke-width: 1.5;" width="211" x="1323.5" y="204"/><ellipse cx="1393.75" cy="220" fill="#ADD1B2" rx="11" ry="11" style="stroke: #A80036; stroke-width: 1.0;"/><path d="M1396.5156,215.875 Q1396.6719,215.6563 1396.8594,215.5469 Q1397.0469,215.4375 1397.2656,215.4375 Q1397.6406,215.4375 1397.875,215.7031 Q1398.1094,215.9531 1398.1094,216.5625 L1398.1094,218.0156 Q1398.1094,218.625 1397.875,218.8906 Q1397.6406,219.1563 1397.2656,219.1563 Q1396.9219,219.1563 1396.7188,218.9531 Q1396.5156,218.7656 1396.4063,218.25 Q1396.3594,217.8906 1396.1719,217.7031 Q1395.8438,217.3281 1395.2344,217.1094 Q1394.625,216.8906 1394,216.8906 Q1393.2344,216.8906 1392.5938,217.2188 Q1391.9688,217.5469 1391.4688,218.2969 Q1390.9844,219.0469 1390.9844,220.0781 L1390.9844,221.1719 Q1390.9844,222.4063 1391.875,223.2344 Q1392.7656,224.0469 1394.3594,224.0469 Q1395.2969,224.0469 1395.9531,223.7969 Q1396.3438,223.6406 1396.7656,223.2031 Q1397.0313,222.9375 1397.1719,222.8594 Q1397.3281,222.7813 1397.5313,222.7813 Q1397.8594,222.7813 1398.1094,223.0469 Q1398.375,223.2969 1398.375,223.6406 Q1398.375,223.9844 1398.0313,224.3906 Q1397.5313,224.9688 1396.7344,225.2969 Q1395.6563,225.75 1394.3594,225.75 Q1392.8438,225.75 1391.6406,225.125 Q1390.6563,224.625 1389.9688,223.5625 Q1389.2813,222.4844 1389.2813,221.2031 L1389.2813,220.0469 Q1389.2813,218.7188 1389.8906,217.5781 Q1390.5156,216.4219 1391.6094,215.8125 Q1392.7031,215.1875 1393.9375,215.1875 Q1394.6719,215.1875 1395.3125,215.3594 Q1395.9688,215.5156 1396.5156,215.875 Z "/><text fill="#000000" font-family="sans-serif" font-size="12" lengthAdjust="spacingAndGlyphs" textLength="62" x="1414.25" y="224.9102">PoseModel</text><line style="stroke: #A80036; stroke-width: 1.5;" x1="1324.5" x2="1533.5" y1="236" y2="236"/><line style="stroke: #A80036; stroke-width: 1.5;" x1="1324.5" x2="1533.5" y1="244" y2="244"/><ellipse cx="1334.5" cy="255" fill="#84BE84" rx="3" ry="3" style="stroke: #038048; stroke-width: 1.0;"/><text fill="#000000" font-family="sans-serif" font-size="11" lengthAdjust="spacingAndGlyphs" textLength="185" x="1343.5" y="259.4189">PoseResults run(MediaPipeLandlands)</text><!--MD5=[25b5849fdf07050d2ae46d9d77aa6ee2]
class ClubHeadDetector--><rect fill="#FEFECE" filter="url(#fghcglz3ygr4e)" height="61.8359" id="ClubHeadDetector" style="stroke: #A80036; stroke-width: 1.5;" width="180" x="6" y="204"/><ellipse cx="41.7" cy="220" fill="#ADD1B2" rx="11" ry="11" style="stroke: #A80036; stroke-width: 1.0;"/><path d="M44.4656,215.875 Q44.6219,215.6563 44.8094,215.5469 Q44.9969,215.4375 45.2156,215.4375 Q45.5906,215.4375 45.825,215.7031 Q46.0594,215.9531 46.0594,216.5625 L46.0594,218.0156 Q46.0594,218.625 45.825,218.8906 Q45.5906,219.1563 45.2156,219.1563 Q44.8719,219.1563 44.6688,218.9531 Q44.4656,218.7656 44.3563,218.25 Q44.3094,217.8906 44.1219,217.7031 Q43.7938,217.3281 43.1844,217.1094 Q42.575,216.8906 41.95,216.8906 Q41.1844,216.8906 40.5438,217.2188 Q39.9188,217.5469 39.4188,218.2969 Q38.9344,219.0469 38.9344,220.0781 L38.9344,221.1719 Q38.9344,222.4063 39.825,223.2344 Q40.7156,224.0469 42.3094,224.0469 Q43.2469,224.0469 43.9031,223.7969 Q44.2938,223.6406 44.7156,223.2031 Q44.9813,222.9375 45.1219,222.8594 Q45.2781,222.7813 45.4813,222.7813 Q45.8094,222.7813 46.0594,223.0469 Q46.325,223.2969 46.325,223.6406 Q46.325,223.9844 45.9813,224.3906 Q45.4813,224.9688 44.6844,225.2969 Q43.6063,225.75 42.3094,225.75 Q40.7938,225.75 39.5906,225.125 Q38.6063,224.625 37.9188,223.5625 Q37.2313,222.4844 37.2313,221.2031 L37.2313,220.0469 Q37.2313,218.7188 37.8406,217.5781 Q38.4656,216.4219 39.5594,215.8125 Q40.6531,215.1875 41.8875,215.1875 Q42.6219,215.1875 43.2625,215.3594 Q43.9188,215.5156 44.4656,215.875 Z "/><text fill="#000000" font-family="sans-serif" font-size="12" lengthAdjust="spacingAndGlyphs" textLength="102" x="60.3" y="224.9102">ClubHeadDetector</text><line style="stroke: #A80036; stroke-width: 1.5;" x1="7" x2="185" y1="236" y2="236"/><line style="stroke: #A80036; stroke-width: 1.5;" x1="7" x2="185" y1="244" y2="244"/><ellipse cx="17" cy="255" fill="#84BE84" rx="3" ry="3" style="stroke: #038048; stroke-width: 1.0;"/><text fill="#000000" font-family="sans-serif" font-size="11" lengthAdjust="spacingAndGlyphs" textLength="154" x="26" y="259.4189">ClubHeadResult run(GolfSwing)</text><!--MD5=[059c56479aeb843dae87207660d60015]
class GolfSwingFactory--><rect fill="#FEFECE" filter="url(#fghcglz3ygr4e)" height="61.8359" id="GolfSwingFactory" style="stroke: #A80036; stroke-width: 1.5;" width="418" x="150" y="8"/><ellipse cx="307.25" cy="24" fill="#ADD1B2" rx="11" ry="11" style="stroke: #A80036; stroke-width: 1.0;"/><path d="M310.0156,19.875 Q310.1719,19.6563 310.3594,19.5469 Q310.5469,19.4375 310.7656,19.4375 Q311.1406,19.4375 311.375,19.7031 Q311.6094,19.9531 311.6094,20.5625 L311.6094,22.0156 Q311.6094,22.625 311.375,22.8906 Q311.1406,23.1563 310.7656,23.1563 Q310.4219,23.1563 310.2188,22.9531 Q310.0156,22.7656 309.9063,22.25 Q309.8594,21.8906 309.6719,21.7031 Q309.3438,21.3281 308.7344,21.1094 Q308.125,20.8906 307.5,20.8906 Q306.7344,20.8906 306.0938,21.2188 Q305.4688,21.5469 304.9688,22.2969 Q304.4844,23.0469 304.4844,24.0781 L304.4844,25.1719 Q304.4844,26.4063 305.375,27.2344 Q306.2656,28.0469 307.8594,28.0469 Q308.7969,28.0469 309.4531,27.7969 Q309.8438,27.6406 310.2656,27.2031 Q310.5313,26.9375 310.6719,26.8594 Q310.8281,26.7813 311.0313,26.7813 Q311.3594,26.7813 311.6094,27.0469 Q311.875,27.2969 311.875,27.6406 Q311.875,27.9844 311.5313,28.3906 Q311.0313,28.9688 310.2344,29.2969 Q309.1563,29.75 307.8594,29.75 Q306.3438,29.75 305.1406,29.125 Q304.1563,28.625 303.4688,27.5625 Q302.7813,26.4844 302.7813,25.2031 L302.7813,24.0469 Q302.7813,22.7188 303.3906,21.5781 Q304.0156,20.4219 305.1094,19.8125 Q306.2031,19.1875 307.4375,19.1875 Q308.1719,19.1875 308.8125,19.3594 Q309.4688,19.5156 310.0156,19.875 Z "/><text fill="#000000" font-family="sans-serif" font-size="12" lengthAdjust="spacingAndGlyphs" textLength="95" x="327.75" y="28.9102">GolfSwingFactory</text><line style="stroke: #A80036; stroke-width: 1.5;" x1="151" x2="567" y1="40" y2="40"/><line style="stroke: #A80036; stroke-width: 1.5;" x1="151" x2="567" y1="48" y2="48"/><ellipse cx="161" cy="59" fill="#84BE84" rx="3" ry="3" style="stroke: #038048; stroke-width: 1.0;"/><text fill="#000000" font-family="sans-serif" font-size="11" lengthAdjust="spacingAndGlyphs" text-decoration="underline" textLength="392" x="170" y="63.4189">GolfSwing create_from_video(String, PoseModel, ClubHeadDetector) : GolfSwing</text><!--MD5=[5aabca6dafa211fca776c56ecce5a613]
class GolfSwingRepository--><rect fill="#FEFECE" filter="url(#fghcglz3ygr4e)" height="61.8359" id="GolfSwingRepository" style="stroke: #A80036; stroke-width: 1.5;" width="296" x="603" y="8"/><ellipse cx="689.25" cy="24" fill="#ADD1B2" rx="11" ry="11" style="stroke: #A80036; stroke-width: 1.0;"/><path d="M692.0156,19.875 Q692.1719,19.6563 692.3594,19.5469 Q692.5469,19.4375 692.7656,19.4375 Q693.1406,19.4375 693.375,19.7031 Q693.6094,19.9531 693.6094,20.5625 L693.6094,22.0156 Q693.6094,22.625 693.375,22.8906 Q693.1406,23.1563 692.7656,23.1563 Q692.4219,23.1563 692.2188,22.9531 Q692.0156,22.7656 691.9063,22.25 Q691.8594,21.8906 691.6719,21.7031 Q691.3438,21.3281 690.7344,21.1094 Q690.125,20.8906 689.5,20.8906 Q688.7344,20.8906 688.0938,21.2188 Q687.4688,21.5469 686.9688,22.2969 Q686.4844,23.0469 686.4844,24.0781 L686.4844,25.1719 Q686.4844,26.4063 687.375,27.2344 Q688.2656,28.0469 689.8594,28.0469 Q690.7969,28.0469 691.4531,27.7969 Q691.8438,27.6406 692.2656,27.2031 Q692.5313,26.9375 692.6719,26.8594 Q692.8281,26.7813 693.0313,26.7813 Q693.3594,26.7813 693.6094,27.0469 Q693.875,27.2969 693.875,27.6406 Q693.875,27.9844 693.5313,28.3906 Q693.0313,28.9688 692.2344,29.2969 Q691.1563,29.75 689.8594,29.75 Q688.3438,29.75 687.1406,29.125 Q686.1563,28.625 685.4688,27.5625 Q684.7813,26.4844 684.7813,25.2031 L684.7813,24.0469 Q684.7813,22.7188 685.3906,21.5781 Q686.0156,20.4219 687.1094,19.8125 Q688.2031,19.1875 689.4375,19.1875 Q690.1719,19.1875 690.8125,19.3594 Q691.4688,19.5156 692.0156,19.875 Z "/><text fill="#000000" font-family="sans-serif" font-size="12" lengthAdjust="spacingAndGlyphs" textLength="115" x="709.75" y="28.9102">GolfSwingRepository</text><line style="stroke: #A80036; stroke-width: 1.5;" x1="604" x2="898" y1="40" y2="40"/><line style="stroke: #A80036; stroke-width: 1.5;" x1="604" x2="898" y1="48" y2="48"/><ellipse cx="614" cy="59" fill="#84BE84" rx="3" ry="3" style="stroke: #038048; stroke-width: 1.0;"/><text fill="#000000" font-family="sans-serif" font-size="11" lengthAdjust="spacingAndGlyphs" textLength="270" x="623" y="63.4189">GolfSwing reconstitute(String, List&lt;String&gt;) : GolfSwing</text><!--MD5=[b6bf7795e76384cd1f9bed46e9e9df8b]
class media_pipe_operations--><rect fill="#FEFECE" filter="url(#fghcglz3ygr4e)" height="48" id="media_pipe_operations" style="stroke: #A80036; stroke-width: 1.5;" width="164" x="1570" y="211"/><ellipse cx="1585" cy="227" fill="#ADD1B2" rx="11" ry="11" style="stroke: #A80036; stroke-width: 1.0;"/><path d="M1587.7656,222.875 Q1587.9219,222.6563 1588.1094,222.5469 Q1588.2969,222.4375 1588.5156,222.4375 Q1588.8906,222.4375 1589.125,222.7031 Q1589.3594,222.9531 1589.3594,223.5625 L1589.3594,225.0156 Q1589.3594,225.625 1589.125,225.8906 Q1588.8906,226.1563 1588.5156,226.1563 Q1588.1719,226.1563 1587.9688,225.9531 Q1587.7656,225.7656 1587.6563,225.25 Q1587.6094,224.8906 1587.4219,224.7031 Q1587.0938,224.3281 1586.4844,224.1094 Q1585.875,223.8906 1585.25,223.8906 Q1584.4844,223.8906 1583.8438,224.2188 Q1583.2188,224.5469 1582.7188,225.2969 Q1582.2344,226.0469 1582.2344,227.0781 L1582.2344,228.1719 Q1582.2344,229.4063 1583.125,230.2344 Q1584.0156,231.0469 1585.6094,231.0469 Q1586.5469,231.0469 1587.2031,230.7969 Q1587.5938,230.6406 1588.0156,230.2031 Q1588.2813,229.9375 1588.4219,229.8594 Q1588.5781,229.7813 1588.7813,229.7813 Q1589.1094,229.7813 1589.3594,230.0469 Q1589.625,230.2969 1589.625,230.6406 Q1589.625,230.9844 1589.2813,231.3906 Q1588.7813,231.9688 1587.9844,232.2969 Q1586.9063,232.75 1585.6094,232.75 Q1584.0938,232.75 1582.8906,232.125 Q1581.9063,231.625 1581.2188,230.5625 Q1580.5313,229.4844 1580.5313,228.2031 L1580.5313,227.0469 Q1580.5313,225.7188 1581.1406,224.5781 Q1581.7656,223.4219 1582.8594,222.8125 Q1583.9531,222.1875 1585.1875,222.1875 Q1585.9219,222.1875 1586.5625,222.3594 Q1587.2188,222.5156 1587.7656,222.875 Z "/><text fill="#000000" font-family="sans-serif" font-size="12" lengthAdjust="spacingAndGlyphs" textLength="132" x="1599" y="231.9102">media_pipe_operations</text><line style="stroke: #A80036; stroke-width: 1.5;" x1="1571" x2="1733" y1="243" y2="243"/><line style="stroke: #A80036; stroke-width: 1.5;" x1="1571" x2="1733" y1="251" y2="251"/><path d="M1025.5,222 L1025.5,231 L805.368,235 L1025.5,239 L1025.5,248.3516 A0,0 0 0 0 1025.5,248.3516 L1172.5,248.3516 A0,0 0 0 0 1172.5,248.3516 L1172.5,232 L1162.5,222 L1025.5,222 A0,0 0 0 0 1025.5,222 " fill="#FBFB77" filter="url(#fghcglz3ygr4e)" style="stroke: #A80036; stroke-width: 1.0;"/><path d="M1162.5,222 L1162.5,232 L1172.5,232 L1162.5,222 " fill="#FBFB77" style="stroke: #A80036; stroke-width: 1.0;"/><text fill="#000000" font-family="sans-serif" font-size="13" lengthAdjust="spacingAndGlyphs" textLength="126" x="1031.5" y="240.4951">Root of the Aggregate</text><path d="M221.5,222 L221.5,231 L186.133,235 L221.5,239 L221.5,248.3516 A0,0 0 0 0 221.5,248.3516 L302.5,248.3516 A0,0 0 0 0 302.5,248.3516 L302.5,232 L292.5,222 L221.5,222 A0,0 0 0 0 221.5,222 " fill="#FBFB77" filter="url(#fghcglz3ygr4e)" style="stroke: #A80036; stroke-width: 1.0;"/><path d="M292.5,222 L292.5,232 L302.5,232 L292.5,222 " fill="#FBFB77" style="stroke: #A80036; stroke-width: 1.0;"/><text fill="#000000" font-family="sans-serif" font-size="13" lengthAdjust="spacingAndGlyphs" textLength="60" x="227.5" y="240.4951">Decorator.</text><path d="M1207.5,222 L1207.5,248.3516 A0,0 0 0 0 1207.5,248.3516 L1288.5,248.3516 A0,0 0 0 0 1288.5,248.3516 L1288.5,240 L1323.47,235 L1288.5,232 L1288.5,232 L1278.5,222 L1207.5,222 A0,0 0 0 0 1207.5,222 " fill="#FBFB77" filter="url(#fghcglz3ygr4e)" style="stroke: #A80036; stroke-width: 1.0;"/><path d="M1278.5,222 L1278.5,232 L1288.5,232 L1278.5,222 " fill="#FBFB77" style="stroke: #A80036; stroke-width: 1.0;"/><text fill="#000000" font-family="sans-serif" font-size="13" lengthAdjust="spacingAndGlyphs" textLength="60" x="1213.5" y="240.4951">Decorator.</text><!--MD5=[43f531dc6e04c5b4875fb190fc9f6f73]
link media_pipe_operations to MediaPipeLandmarks--><path d="M1605.82,259.059 C1589.18,266.628 1570.05,274.499 1552,280 C1363.57,337.415 1137.12,371.298 998.409,388.261 " fill="none" id="media_pipe_operations-&gt;MediaPipeLandmarks" style="stroke: #A80036; stroke-width: 1.0; stroke-dasharray: 7.0,7.0;"/><polygon fill="#A80036" points="993.102,388.9069,1002.5195,391.7899,998.0654,388.3026,1001.5526,383.8485,993.102,388.9069" style="stroke: #A80036; stroke-width: 1.0;"/><text fill="#000000" font-family="sans-serif" font-size="13" lengthAdjust="spacingAndGlyphs" textLength="63" x="1425" y="324.4951">creates &gt;&gt;</text><!--MD5=[ae9e4f9c4903d8877f53dc8ee5f523e5]
link PoseModel to PoseResults--><path d="M1352.66,266.092 C1337.38,271.321 1321.31,276.269 1306,280 C1054.58,341.249 977.407,285.478 729,358 C724.987,359.172 720.928,360.488 716.864,361.913 " fill="none" id="PoseModel-&gt;PoseResults" style="stroke: #A80036; stroke-width: 1.0; stroke-dasharray: 7.0,7.0;"/><polygon fill="#A80036" points="712.094,363.635,721.9173,364.3434,716.7973,361.9382,719.2025,356.8182,712.094,363.635" style="stroke: #A80036; stroke-width: 1.0;"/><text fill="#000000" font-family="sans-serif" font-size="13" lengthAdjust="spacingAndGlyphs" textLength="63" x="1118" y="324.4951">creates &gt;&gt;</text><!--MD5=[23e3db518deda7f4ec9899e8fc5a3bd8]
link ClubHeadDetector to ClubHeadResult--><path d="M156.123,266.061 C214.582,295.291 303.109,339.555 363.132,369.566 " fill="none" id="ClubHeadDetector-&gt;ClubHeadResult" style="stroke: #A80036; stroke-width: 1.0; stroke-dasharray: 7.0,7.0;"/><polygon fill="#A80036" points="367.765,371.882,361.504,364.2794,363.2929,369.6459,357.9263,371.4348,367.765,371.882" style="stroke: #A80036; stroke-width: 1.0;"/><text fill="#000000" font-family="sans-serif" font-size="13" lengthAdjust="spacingAndGlyphs" textLength="63" x="273" y="324.4951">creates &gt;&gt;</text><!--MD5=[75f030cc69715e8adcda55d17a5922ef]
reverse link GolfSwing to ClubHeadDetector--><path d="M621.883,187.773 C519.311,138.122 344.23,74.459 204,131 C167.788,145.601 136.933,178.797 117.59,203.784 " fill="none" id="GolfSwing&lt;-ClubHeadDetector" style="stroke: #A80036; stroke-width: 1.0;"/><polygon fill="#A80036" points="626.409,189.977,620.0697,182.4396,621.914,187.7873,616.5662,189.6316,626.409,189.977" style="stroke: #A80036; stroke-width: 1.0;"/><text fill="#000000" font-family="sans-serif" font-size="13" lengthAdjust="spacingAndGlyphs" textLength="77" x="222.5" y="114.4951">decorates &gt;&gt;</text><!--MD5=[5159e182b077b2dbdc73293d6869d679]
reverse link GolfSwing to PoseModel--><path d="M805.406,187.997 C926.085,136.499 1136.49,68.943 1306,131 C1345.39,145.421 1380.85,178.648 1403.46,203.691 " fill="none" id="GolfSwing&lt;-PoseModel" style="stroke: #A80036; stroke-width: 1.0;"/><polygon fill="#A80036" points="800.796,189.975,810.6441,190.0993,805.3903,188.0021,807.4875,182.7484,800.796,189.975" style="stroke: #A80036; stroke-width: 1.0;"/><text fill="#000000" font-family="sans-serif" font-size="13" lengthAdjust="spacingAndGlyphs" textLength="77" x="1030.5" y="114.4951">decorates &gt;&gt;</text><!--MD5=[42752f0afd81dc3d1a8687b16190d4e2]
link GolfSwingFactory to GolfSwing--><path d="M413.148,70.1 C469.521,101.436 558.565,150.933 624.062,187.341 " fill="none" id="GolfSwingFactory-&gt;GolfSwing" style="stroke: #A80036; stroke-width: 1.0; stroke-dasharray: 7.0,7.0;"/><polygon fill="#A80036" points="628.736,189.939,622.8112,182.0716,624.3652,187.5108,618.926,189.0648,628.736,189.939" style="stroke: #A80036; stroke-width: 1.0;"/><text fill="#000000" font-family="sans-serif" font-size="13" lengthAdjust="spacingAndGlyphs" textLength="63" x="493" y="114.4951">creates &gt;&gt;</text><!--MD5=[a1a37bf5692c97b53f28d1bd41ffdce5]
link GolfSwingRepository to GolfSwing--><path d="M744.281,70.312 C737.505,100.886 726.931,148.59 718.943,184.628 " fill="none" id="GolfSwingRepository-&gt;GolfSwing" style="stroke: #A80036; stroke-width: 1.0; stroke-dasharray: 7.0,7.0;"/><polygon fill="#A80036" points="717.784,189.857,723.636,181.9352,718.8655,184.9754,715.8253,180.2049,717.784,189.857" style="stroke: #A80036; stroke-width: 1.0;"/><text fill="#000000" font-family="sans-serif" font-size="13" lengthAdjust="spacingAndGlyphs" textLength="60" x="739" y="114.4951">returns &gt;&gt;</text><!--MD5=[73eafc5150ac1f797e36140ff75d01b5]
link GolfSwing to MediaPipeLandmarks--><path d="M759.3691,288.6372 C759.3691,288.6372 804.526,334.909 824.488,355.364 " fill="none" id="GolfSwing-MediaPipeLandmarks" style="stroke: #A80036; stroke-width: 1.0;"/><polygon fill="#A80036" points="833.676,364.779,830.2529,355.5442,830.1839,361.2006,824.5274,361.1316,833.676,364.779" style="stroke: #A80036; stroke-width: 1.0;"/><line style="stroke: #A80036; stroke-width: 1.0;" x1="830.1839" x2="824.5965" y1="361.2006" y2="355.476"/><polygon fill="#FFFFFF" points="750.988,280.049,752.3158,287.1368,759.3691,288.6372,758.0413,281.5494,750.988,280.049" style="stroke: #A80036; stroke-width: 1.0;"/><text fill="#000000" font-family="sans-serif" font-size="13" lengthAdjust="spacingAndGlyphs" textLength="36" x="794" y="324.4951">stores</text><polygon fill="#000000" points="807.5,333.3516,810.5,339.3516,813.5,333.3516,807.5,333.3516" style="stroke: #000000; stroke-width: 1.0;"/><!--MD5=[2c9de45777b53edc2b8287655cc41434]
link GolfSwing to PoseResults--><path d="M683.478,291.0092 C683.478,291.0092 666.806,328.409 659.07,345.762 " fill="none" id="GolfSwing-PoseResults" style="stroke: #A80036; stroke-width: 1.0;"/><polygon fill="#A80036" points="653.728,357.745,661.0456,351.1532,655.7636,353.1781,653.7387,347.8961,653.728,357.745" style="stroke: #A80036; stroke-width: 1.0;"/><line style="stroke: #A80036; stroke-width: 1.0;" x1="655.7636" x2="659.021" y1="353.1781" y2="345.8715"/><polygon fill="#FFFFFF" points="688.364,280.049,682.2676,283.9004,683.478,291.0092,689.5744,287.1578,688.364,280.049" style="stroke: #A80036; stroke-width: 1.0;"/><text fill="#000000" font-family="sans-serif" font-size="13" lengthAdjust="spacingAndGlyphs" textLength="36" x="675" y="324.4951">stores</text><polygon fill="#000000" points="688.5,333.3516,691.5,339.3516,694.5,333.3516,688.5,333.3516" style="stroke: #000000; stroke-width: 1.0;"/><!--MD5=[6ae223e52934938f7ecaf8c6d849109f]
link GolfSwing to ClubHeadResult--><path d="M623.3778,286.1688 C623.3778,286.1688 529.016,342.112 490.141,365.159 " fill="none" id="GolfSwing-ClubHeadResult" style="stroke: #A80036; stroke-width: 1.0;"/><polygon fill="#A80036" points="478.734,371.922,488.5155,370.7724,483.0348,369.3719,484.4353,363.8911,478.734,371.922" style="stroke: #A80036; stroke-width: 1.0;"/><line style="stroke: #A80036; stroke-width: 1.0;" x1="483.0348" x2="489.9165" y1="369.3719" y2="365.2925"/><polygon fill="#FFFFFF" points="633.7,280.049,626.499,279.6681,623.3778,286.1688,630.5788,286.5496,633.7,280.049" style="stroke: #A80036; stroke-width: 1.0;"/><polygon fill="#000000" points="585,317.6758,579,320.6758,585,323.6758,585,317.6758" style="stroke: #000000; stroke-width: 1.0;"/><text fill="#000000" font-family="sans-serif" font-size="13" lengthAdjust="spacingAndGlyphs" textLength="36" x="591" y="324.4951">stores</text><!--MD5=[1d9c21cc5f927aaaf137cac32620c087]
@startuml

package "GolfSwing Aggregate" {
    class GolfSwing {
      - MediaPipeLandmarks mp_results
      - PoseResults pose_results
      - ClubHeadResult club_head_results
    }

    class MediaPipeLandmarks {
      - List video_landmarks
      + (x, y) get_norm_point(frame_idx, point_name)
    }

    class PoseResults {
      - List<GolfPoses> golfPoses
      - (int, int) pose_sequence
      - String handed
    }

    class ClubHeadResult {
      - List<(int, int)> screenCoordinates
    }
}

class PoseModel {
  + PoseResults run(MediaPipeLandlands)
}

class ClubHeadDetector {
  + ClubHeadResult run(GolfSwing)
}

class GolfSwingFactory {
  + {static} GolfSwing create_from_video(String, PoseModel, ClubHeadDetector) : GolfSwing
}

class GolfSwingRepository {
  + GolfSwing reconstitute(String, List<String>) : GolfSwing
}

media_pipe_operations ..> MediaPipeLandmarks : creates >>
PoseModel ..> PoseResults : creates >>
ClubHeadDetector ..> ClubHeadResult : creates >>
ClubHeadDetector -left-> GolfSwing : decorates >>
PoseModel -left-> GolfSwing : decorates >>
GolfSwingFactory ..> GolfSwing : creates >>
GolfSwingRepository ..> GolfSwing : returns >>

GolfSwing o-down-> MediaPipeLandmarks : stores >
GolfSwing o-down-> PoseResults : stores >
GolfSwing o-down-> ClubHeadResult : stores >

note "Root of the Aggregate" as N1
N1 .left.> GolfSwing
note "Decorator." as N2
N2 .left.> ClubHeadDetector
note "Decorator." as N3
N3 .right.> PoseModel

@enduml

PlantUML version 1.2020.02(Sun Mar 01 05:22:07 EST 2020)
(GPL source distribution)
Java Runtime: Java(TM) SE Runtime Environment
JVM: Java HotSpot(TM) 64-Bit Server VM
Java Version: 17.0.8+9-LTS-211
Operating System: Windows 10
Default Encoding: Cp1252
Language: en
Country: US
--></g></svg>